<mxfile host="app.diagrams.net" modified="2020-06-22T19:07:27.243Z" agent="5.0 (Windows NT 10.0; Win64; x64) AppleWebKit/537.36 (KHTML, like Gecko) Chrome/83.0.4103.106 Safari/537.36 Edg/83.0.478.54" etag="xnXGwMuPmcBMKcdAZr6l" version="13.3.0" type="github">
  <diagram id="hvTxywRXqhzX3uinB9g3" name="Page-1">
    <mxGraphModel dx="5590" dy="2560" grid="1" gridSize="10" guides="1" tooltips="1" connect="1" arrows="1" fold="1" page="1" pageScale="1" pageWidth="850" pageHeight="1100" math="0" shadow="0">
      <root>
        <mxCell id="0" />
        <mxCell id="1" parent="0" />
        <mxCell id="0cCKj04-58CsqOeZP6ju-321" value="Cougars OMDB&amp;nbsp;&amp;nbsp;" style="text;strokeColor=none;fillColor=none;html=1;fontSize=24;fontStyle=1;verticalAlign=middle;align=center;" vertex="1" parent="1">
          <mxGeometry x="100.5" y="270" width="100" height="40" as="geometry" />
        </mxCell>
        <mxCell id="0cCKj04-58CsqOeZP6ju-322" value="sings" style="shape=rhombus;double=1;perimeter=rhombusPerimeter;whiteSpace=wrap;html=1;align=center;" vertex="1" parent="1">
          <mxGeometry x="-284.5" y="476" width="120" height="60" as="geometry" />
        </mxCell>
        <mxCell id="0cCKj04-58CsqOeZP6ju-323" value="" style="shape=link;html=1;exitX=0.917;exitY=0.5;exitDx=0;exitDy=0;exitPerimeter=0;" edge="1" parent="1" source="0cCKj04-58CsqOeZP6ju-322" target="0cCKj04-58CsqOeZP6ju-372">
          <mxGeometry width="50" height="50" relative="1" as="geometry">
            <mxPoint x="-169.5" y="620" as="sourcePoint" />
            <mxPoint x="-119.5" y="570" as="targetPoint" />
          </mxGeometry>
        </mxCell>
        <mxCell id="0cCKj04-58CsqOeZP6ju-405" value="" style="endArrow=classic;html=1;entryX=0.91;entryY=0.403;entryDx=0;entryDy=0;exitX=0;exitY=0.5;exitDx=0;exitDy=0;entryPerimeter=0;" edge="1" parent="1" source="0cCKj04-58CsqOeZP6ju-373" target="0cCKj04-58CsqOeZP6ju-490">
          <mxGeometry width="50" height="50" relative="1" as="geometry">
            <mxPoint x="-129.5" y="540" as="sourcePoint" />
            <mxPoint x="-144.5" y="380" as="targetPoint" />
          </mxGeometry>
        </mxCell>
        <mxCell id="0cCKj04-58CsqOeZP6ju-416" value="promotes" style="shape=rhombus;double=1;perimeter=rhombusPerimeter;whiteSpace=wrap;html=1;align=center;" vertex="1" parent="1">
          <mxGeometry x="335.5" y="1120" width="105" height="50" as="geometry" />
        </mxCell>
        <mxCell id="0cCKj04-58CsqOeZP6ju-417" value="" style="shape=link;html=1;entryX=0.343;entryY=0.84;entryDx=0;entryDy=0;entryPerimeter=0;exitX=0.56;exitY=-0.015;exitDx=0;exitDy=0;exitPerimeter=0;" edge="1" parent="1" source="0cCKj04-58CsqOeZP6ju-600" target="0cCKj04-58CsqOeZP6ju-416">
          <mxGeometry width="50" height="50" relative="1" as="geometry">
            <mxPoint x="371.5" y="1241" as="sourcePoint" />
            <mxPoint x="10.5" y="880" as="targetPoint" />
            <Array as="points" />
          </mxGeometry>
        </mxCell>
        <mxCell id="0cCKj04-58CsqOeZP6ju-418" value="" style="shape=link;html=1;entryX=0.2;entryY=0.65;entryDx=0;entryDy=0;entryPerimeter=0;width=5.294117647058824;exitX=0.381;exitY=0.032;exitDx=0;exitDy=0;exitPerimeter=0;" edge="1" parent="1" source="0cCKj04-58CsqOeZP6ju-614" target="0cCKj04-58CsqOeZP6ju-459">
          <mxGeometry width="50" height="50" relative="1" as="geometry">
            <mxPoint x="535.5" y="1213.5" as="sourcePoint" />
            <mxPoint x="120.5" y="890" as="targetPoint" />
          </mxGeometry>
        </mxCell>
        <mxCell id="0cCKj04-58CsqOeZP6ju-419" value="" style="endArrow=classic;html=1;entryX=0.331;entryY=0.989;entryDx=0;entryDy=0;exitX=0.33;exitY=0.174;exitDx=0;exitDy=0;exitPerimeter=0;entryPerimeter=0;" edge="1" parent="1" source="0cCKj04-58CsqOeZP6ju-416" target="0cCKj04-58CsqOeZP6ju-359">
          <mxGeometry width="50" height="50" relative="1" as="geometry">
            <mxPoint x="100.5" y="880" as="sourcePoint" />
            <mxPoint x="150.5" y="830" as="targetPoint" />
          </mxGeometry>
        </mxCell>
        <mxCell id="0cCKj04-58CsqOeZP6ju-420" value="writes" style="shape=rhombus;double=1;perimeter=rhombusPerimeter;whiteSpace=wrap;html=1;align=center;" vertex="1" parent="1">
          <mxGeometry x="-284.5" y="602" width="80" height="60" as="geometry" />
        </mxCell>
        <mxCell id="0cCKj04-58CsqOeZP6ju-421" value="" style="shape=link;html=1;width=6.4705882352941195;entryX=0.99;entryY=0.141;entryDx=0;entryDy=0;entryPerimeter=0;exitX=0;exitY=0.5;exitDx=0;exitDy=0;" edge="1" parent="1" source="0cCKj04-58CsqOeZP6ju-420" target="0cCKj04-58CsqOeZP6ju-392">
          <mxGeometry width="50" height="50" relative="1" as="geometry">
            <mxPoint x="-419.5" y="665" as="sourcePoint" />
            <mxPoint x="-369.5" y="615" as="targetPoint" />
            <Array as="points" />
          </mxGeometry>
        </mxCell>
        <mxCell id="0cCKj04-58CsqOeZP6ju-422" value="" style="endArrow=classic;html=1;entryX=0;entryY=0.5;entryDx=0;entryDy=0;exitX=1;exitY=1;exitDx=0;exitDy=0;" edge="1" parent="1" source="0cCKj04-58CsqOeZP6ju-420" target="0cCKj04-58CsqOeZP6ju-350">
          <mxGeometry width="50" height="50" relative="1" as="geometry">
            <mxPoint x="-219.5" y="700" as="sourcePoint" />
            <mxPoint x="-189.5" y="720" as="targetPoint" />
          </mxGeometry>
        </mxCell>
        <mxCell id="0cCKj04-58CsqOeZP6ju-423" value="" style="endArrow=classic;html=1;entryX=1;entryY=0.5;entryDx=0;entryDy=0;exitX=0;exitY=1;exitDx=0;exitDy=0;" edge="1" parent="1" source="0cCKj04-58CsqOeZP6ju-322" target="0cCKj04-58CsqOeZP6ju-383">
          <mxGeometry width="50" height="50" relative="1" as="geometry">
            <mxPoint x="-179.5" y="640" as="sourcePoint" />
            <mxPoint x="-229.5" y="560" as="targetPoint" />
          </mxGeometry>
        </mxCell>
        <mxCell id="0cCKj04-58CsqOeZP6ju-424" value="" style="endArrow=classic;html=1;entryX=0.516;entryY=1.308;entryDx=0;entryDy=0;entryPerimeter=0;exitX=0.428;exitY=0.017;exitDx=0;exitDy=0;exitPerimeter=0;" edge="1" parent="1" source="0cCKj04-58CsqOeZP6ju-382" target="0cCKj04-58CsqOeZP6ju-336">
          <mxGeometry width="50" height="50" relative="1" as="geometry">
            <mxPoint x="-454.5" y="482.5" as="sourcePoint" />
            <mxPoint x="-404.5" y="432.5" as="targetPoint" />
          </mxGeometry>
        </mxCell>
        <mxCell id="0cCKj04-58CsqOeZP6ju-425" value="" style="shape=link;html=1;exitX=0.659;exitY=0.043;exitDx=0;exitDy=0;entryX=0.5;entryY=1;entryDx=0;entryDy=0;exitPerimeter=0;" edge="1" parent="1" source="0cCKj04-58CsqOeZP6ju-480" target="0cCKj04-58CsqOeZP6ju-426">
          <mxGeometry width="50" height="50" relative="1" as="geometry">
            <mxPoint x="-554.5" y="867.5" as="sourcePoint" />
            <mxPoint x="-409.5" y="730" as="targetPoint" />
          </mxGeometry>
        </mxCell>
        <mxCell id="0cCKj04-58CsqOeZP6ju-426" value="URL" style="shape=rhombus;double=1;perimeter=rhombusPerimeter;whiteSpace=wrap;html=1;align=center;" vertex="1" parent="1">
          <mxGeometry x="-574.5" y="750" width="120" height="60" as="geometry" />
        </mxCell>
        <mxCell id="0cCKj04-58CsqOeZP6ju-427" value="" style="endArrow=classic;html=1;entryX=0.072;entryY=1.067;entryDx=0;entryDy=0;exitX=0.5;exitY=0;exitDx=0;exitDy=0;entryPerimeter=0;" edge="1" parent="1" source="0cCKj04-58CsqOeZP6ju-426" target="0cCKj04-58CsqOeZP6ju-392">
          <mxGeometry width="50" height="50" relative="1" as="geometry">
            <mxPoint x="-429.5" y="750" as="sourcePoint" />
            <mxPoint x="-379.5" y="700" as="targetPoint" />
          </mxGeometry>
        </mxCell>
        <mxCell id="0cCKj04-58CsqOeZP6ju-428" value="" style="endArrow=classic;startArrow=classic;html=1;entryX=0;entryY=0.5;entryDx=0;entryDy=0;exitX=1;exitY=0.5;exitDx=0;exitDy=0;" edge="1" parent="1" source="0cCKj04-58CsqOeZP6ju-363" target="0cCKj04-58CsqOeZP6ju-429">
          <mxGeometry width="50" height="50" relative="1" as="geometry">
            <mxPoint x="490.5" y="970" as="sourcePoint" />
            <mxPoint x="710.5" y="1080" as="targetPoint" />
          </mxGeometry>
        </mxCell>
        <mxCell id="0cCKj04-58CsqOeZP6ju-429" value="acts" style="shape=rhombus;double=1;perimeter=rhombusPerimeter;whiteSpace=wrap;html=1;align=center;" vertex="1" parent="1">
          <mxGeometry x="550.5" y="910" width="90" height="50" as="geometry" />
        </mxCell>
        <mxCell id="0cCKj04-58CsqOeZP6ju-430" value="" style="shape=link;html=1;exitX=1;exitY=0.5;exitDx=0;exitDy=0;" edge="1" parent="1" source="0cCKj04-58CsqOeZP6ju-429" target="0cCKj04-58CsqOeZP6ju-573">
          <mxGeometry width="50" height="50" relative="1" as="geometry">
            <mxPoint x="670.5" y="1057.5" as="sourcePoint" />
            <mxPoint x="730.5" y="995" as="targetPoint" />
          </mxGeometry>
        </mxCell>
        <mxCell id="0cCKj04-58CsqOeZP6ju-431" value="" style="shape=link;html=1;exitX=0.006;exitY=0.415;exitDx=0;exitDy=0;exitPerimeter=0;entryX=0.844;entryY=0.474;entryDx=0;entryDy=0;entryPerimeter=0;" edge="1" parent="1" source="0cCKj04-58CsqOeZP6ju-586" target="0cCKj04-58CsqOeZP6ju-461">
          <mxGeometry width="50" height="50" relative="1" as="geometry">
            <mxPoint x="721.5800000000004" y="1096.99" as="sourcePoint" />
            <mxPoint x="631.5" y="1020" as="targetPoint" />
          </mxGeometry>
        </mxCell>
        <mxCell id="0cCKj04-58CsqOeZP6ju-432" value="" style="shape=link;html=1;entryX=0;entryY=0.75;entryDx=0;entryDy=0;exitX=0.856;exitY=0.45;exitDx=0;exitDy=0;exitPerimeter=0;" edge="1" parent="1" source="0cCKj04-58CsqOeZP6ju-463" target="0cCKj04-58CsqOeZP6ju-560">
          <mxGeometry width="50" height="50" relative="1" as="geometry">
            <mxPoint x="540.5" y="960" as="sourcePoint" />
            <mxPoint x="656.2600000000002" y="855.2500000000002" as="targetPoint" />
          </mxGeometry>
        </mxCell>
        <mxCell id="0cCKj04-58CsqOeZP6ju-433" value="" style="shape=link;html=1;entryX=0.2;entryY=0.975;entryDx=0;entryDy=0;entryPerimeter=0;exitX=1;exitY=0;exitDx=0;exitDy=0;" edge="1" parent="1" source="0cCKj04-58CsqOeZP6ju-434" target="0cCKj04-58CsqOeZP6ju-547">
          <mxGeometry width="50" height="50" relative="1" as="geometry">
            <mxPoint x="520.5" y="920" as="sourcePoint" />
            <mxPoint x="530.56" y="719.99" as="targetPoint" />
          </mxGeometry>
        </mxCell>
        <mxCell id="0cCKj04-58CsqOeZP6ju-434" value="acts" style="shape=rhombus;double=1;perimeter=rhombusPerimeter;whiteSpace=wrap;html=1;align=center;" vertex="1" parent="1">
          <mxGeometry x="430.5" y="810" width="90" height="40" as="geometry" />
        </mxCell>
        <mxCell id="0cCKj04-58CsqOeZP6ju-435" value="" style="endArrow=classic;html=1;entryX=0.5;entryY=0;entryDx=0;entryDy=0;exitX=0;exitY=1;exitDx=0;exitDy=0;" edge="1" parent="1" source="0cCKj04-58CsqOeZP6ju-434" target="0cCKj04-58CsqOeZP6ju-359">
          <mxGeometry width="50" height="50" relative="1" as="geometry">
            <mxPoint x="360.5" y="880" as="sourcePoint" />
            <mxPoint x="410.5" y="830" as="targetPoint" />
          </mxGeometry>
        </mxCell>
        <mxCell id="0cCKj04-58CsqOeZP6ju-436" value="produce_music" style="shape=rhombus;double=1;perimeter=rhombusPerimeter;whiteSpace=wrap;html=1;align=center;" vertex="1" parent="1">
          <mxGeometry x="175.5" y="1095" width="105" height="55" as="geometry" />
        </mxCell>
        <mxCell id="0cCKj04-58CsqOeZP6ju-437" value="" style="shape=partialRectangle;collapsible=0;dropTarget=0;pointerEvents=0;fillColor=none;top=0;left=0;bottom=0;right=0;points=[[0,0.5],[1,0.5]];portConstraint=eastwest;" vertex="1" parent="1">
          <mxGeometry x="320" y="1015" width="180" height="30" as="geometry" />
        </mxCell>
        <mxCell id="0cCKj04-58CsqOeZP6ju-438" value="" style="shape=partialRectangle;connectable=0;fillColor=none;top=0;left=0;bottom=0;right=0;editable=1;overflow=hidden;" vertex="1" parent="0cCKj04-58CsqOeZP6ju-437">
          <mxGeometry width="30" height="30" as="geometry" />
        </mxCell>
        <mxCell id="0cCKj04-58CsqOeZP6ju-439" value="trivia" style="shape=partialRectangle;connectable=0;fillColor=none;top=0;left=0;bottom=0;right=0;align=left;spacingLeft=6;overflow=hidden;" vertex="1" parent="0cCKj04-58CsqOeZP6ju-437">
          <mxGeometry x="30" width="150" height="30" as="geometry" />
        </mxCell>
        <mxCell id="0cCKj04-58CsqOeZP6ju-440" value="" style="shape=link;html=1;entryX=0;entryY=1;entryDx=0;entryDy=0;exitX=0.975;exitY=0.078;exitDx=0;exitDy=0;exitPerimeter=0;" edge="1" parent="1" source="0cCKj04-58CsqOeZP6ju-519" target="0cCKj04-58CsqOeZP6ju-436">
          <mxGeometry width="50" height="50" relative="1" as="geometry">
            <mxPoint x="180.5" y="1168" as="sourcePoint" />
            <mxPoint x="170.5" y="1110" as="targetPoint" />
          </mxGeometry>
        </mxCell>
        <mxCell id="0cCKj04-58CsqOeZP6ju-441" value="direct" style="shape=rhombus;double=1;perimeter=rhombusPerimeter;whiteSpace=wrap;html=1;align=center;" vertex="1" parent="1">
          <mxGeometry x="135" y="841" width="93" height="39" as="geometry" />
        </mxCell>
        <mxCell id="0cCKj04-58CsqOeZP6ju-442" value="produce" style="shape=rhombus;double=1;perimeter=rhombusPerimeter;whiteSpace=wrap;html=1;align=center;" vertex="1" parent="1">
          <mxGeometry x="125.5" y="1038" width="95" height="43" as="geometry" />
        </mxCell>
        <mxCell id="0cCKj04-58CsqOeZP6ju-443" value="" style="shape=link;html=1;exitX=0.99;exitY=0.2;exitDx=0;exitDy=0;exitPerimeter=0;entryX=0;entryY=1;entryDx=0;entryDy=0;" edge="1" parent="1" target="0cCKj04-58CsqOeZP6ju-442">
          <mxGeometry width="50" height="50" relative="1" as="geometry">
            <mxPoint x="73.69999999999982" y="1088.5" as="sourcePoint" />
            <mxPoint x="165.5" y="1045" as="targetPoint" />
          </mxGeometry>
        </mxCell>
        <mxCell id="0cCKj04-58CsqOeZP6ju-444" value="" style="endArrow=classic;html=1;entryX=0.335;entryY=1.009;entryDx=0;entryDy=0;entryPerimeter=0;exitX=0.25;exitY=0;exitDx=0;exitDy=0;" edge="1" parent="1" source="0cCKj04-58CsqOeZP6ju-359" target="0cCKj04-58CsqOeZP6ju-339">
          <mxGeometry width="50" height="50" relative="1" as="geometry">
            <mxPoint x="340.5" y="880" as="sourcePoint" />
            <mxPoint x="390.5" y="830" as="targetPoint" />
          </mxGeometry>
        </mxCell>
        <mxCell id="0cCKj04-58CsqOeZP6ju-445" value="" style="endArrow=classic;html=1;entryX=0.097;entryY=0.012;entryDx=0;entryDy=0;entryPerimeter=0;exitX=0.576;exitY=1.001;exitDx=0;exitDy=0;exitPerimeter=0;" edge="1" parent="1" source="0cCKj04-58CsqOeZP6ju-395" target="0cCKj04-58CsqOeZP6ju-359">
          <mxGeometry width="50" height="50" relative="1" as="geometry">
            <mxPoint x="270.5" y="870" as="sourcePoint" />
            <mxPoint x="320.5" y="820" as="targetPoint" />
          </mxGeometry>
        </mxCell>
        <mxCell id="0cCKj04-58CsqOeZP6ju-456" value="" style="shape=link;html=1;exitX=0;exitY=0;exitDx=0;exitDy=0;" edge="1" parent="1" source="0cCKj04-58CsqOeZP6ju-441" target="0cCKj04-58CsqOeZP6ju-532">
          <mxGeometry width="50" height="50" relative="1" as="geometry">
            <mxPoint x="145.5" y="912" as="sourcePoint" />
            <mxPoint x="64.27999999999975" y="783.54" as="targetPoint" />
          </mxGeometry>
        </mxCell>
        <mxCell id="0cCKj04-58CsqOeZP6ju-457" value="" style="endArrow=none;html=1;entryX=0.5;entryY=1;entryDx=0;entryDy=0;exitX=0.837;exitY=0.035;exitDx=0;exitDy=0;exitPerimeter=0;" edge="1" parent="1" source="0cCKj04-58CsqOeZP6ju-446" target="0cCKj04-58CsqOeZP6ju-543">
          <mxGeometry width="50" height="50" relative="1" as="geometry">
            <mxPoint x="220.5" y="1320" as="sourcePoint" />
            <mxPoint x="250.5" y="1255" as="targetPoint" />
          </mxGeometry>
        </mxCell>
        <mxCell id="0cCKj04-58CsqOeZP6ju-458" value="" style="endArrow=none;html=1;exitX=1;exitY=0;exitDx=0;exitDy=0;entryX=0.058;entryY=1.3;entryDx=0;entryDy=0;entryPerimeter=0;" edge="1" parent="1" source="0cCKj04-58CsqOeZP6ju-543" target="0cCKj04-58CsqOeZP6ju-369">
          <mxGeometry width="50" height="50" relative="1" as="geometry">
            <mxPoint x="270.5400000000004" y="1210" as="sourcePoint" />
            <mxPoint x="330.5" y="1140" as="targetPoint" />
          </mxGeometry>
        </mxCell>
        <mxCell id="0cCKj04-58CsqOeZP6ju-459" value="promotes" style="shape=rhombus;double=1;perimeter=rhombusPerimeter;whiteSpace=wrap;html=1;align=center;" vertex="1" parent="1">
          <mxGeometry x="470.5" y="1116" width="90" height="45" as="geometry" />
        </mxCell>
        <mxCell id="0cCKj04-58CsqOeZP6ju-460" value="" style="endArrow=classic;html=1;entryX=0.719;entryY=1.267;entryDx=0;entryDy=0;entryPerimeter=0;exitX=0.175;exitY=0.392;exitDx=0;exitDy=0;exitPerimeter=0;" edge="1" parent="1" source="0cCKj04-58CsqOeZP6ju-459" target="0cCKj04-58CsqOeZP6ju-369">
          <mxGeometry width="50" height="50" relative="1" as="geometry">
            <mxPoint x="520.5" y="1110" as="sourcePoint" />
            <mxPoint x="570.5" y="1060" as="targetPoint" />
          </mxGeometry>
        </mxCell>
        <mxCell id="0cCKj04-58CsqOeZP6ju-461" value="acts" style="shape=rhombus;double=1;perimeter=rhombusPerimeter;whiteSpace=wrap;html=1;align=center;" vertex="1" parent="1">
          <mxGeometry x="565.5" y="1042.5" width="90" height="50" as="geometry" />
        </mxCell>
        <mxCell id="0cCKj04-58CsqOeZP6ju-462" value="" style="endArrow=classic;startArrow=classic;html=1;entryX=0;entryY=0.5;entryDx=0;entryDy=0;exitX=1;exitY=0.5;exitDx=0;exitDy=0;" edge="1" parent="1" source="0cCKj04-58CsqOeZP6ju-437" target="0cCKj04-58CsqOeZP6ju-461">
          <mxGeometry width="50" height="50" relative="1" as="geometry">
            <mxPoint x="515.5" y="1097.5" as="sourcePoint" />
            <mxPoint x="565.5" y="1047.5" as="targetPoint" />
          </mxGeometry>
        </mxCell>
        <mxCell id="0cCKj04-58CsqOeZP6ju-463" value="acts" style="shape=rhombus;double=1;perimeter=rhombusPerimeter;whiteSpace=wrap;html=1;align=center;" vertex="1" parent="1">
          <mxGeometry x="515.5" y="850" width="90" height="40" as="geometry" />
        </mxCell>
        <mxCell id="0cCKj04-58CsqOeZP6ju-464" value="" style="endArrow=classic;html=1;entryX=0.992;entryY=-0.1;entryDx=0;entryDy=0;entryPerimeter=0;" edge="1" parent="1" source="0cCKj04-58CsqOeZP6ju-463" target="0cCKj04-58CsqOeZP6ju-360">
          <mxGeometry width="50" height="50" relative="1" as="geometry">
            <mxPoint x="480.5" y="900" as="sourcePoint" />
            <mxPoint x="530.5" y="850" as="targetPoint" />
          </mxGeometry>
        </mxCell>
        <mxCell id="0cCKj04-58CsqOeZP6ju-465" value="" style="endArrow=none;html=1;entryX=-0.008;entryY=0.767;entryDx=0;entryDy=0;entryPerimeter=0;exitX=1;exitY=0;exitDx=0;exitDy=0;" edge="1" parent="1" source="0cCKj04-58CsqOeZP6ju-436" target="0cCKj04-58CsqOeZP6ju-437">
          <mxGeometry width="50" height="50" relative="1" as="geometry">
            <mxPoint x="250.5" y="1100" as="sourcePoint" />
            <mxPoint x="300.5" y="1050" as="targetPoint" />
          </mxGeometry>
        </mxCell>
        <mxCell id="0cCKj04-58CsqOeZP6ju-466" value="" style="endArrow=none;html=1;entryX=0.003;entryY=0.1;entryDx=0;entryDy=0;entryPerimeter=0;exitX=0.917;exitY=0.442;exitDx=0;exitDy=0;exitPerimeter=0;" edge="1" parent="1" source="0cCKj04-58CsqOeZP6ju-442" target="0cCKj04-58CsqOeZP6ju-366">
          <mxGeometry width="50" height="50" relative="1" as="geometry">
            <mxPoint x="260.5" y="1040" as="sourcePoint" />
            <mxPoint x="310.5" y="990" as="targetPoint" />
          </mxGeometry>
        </mxCell>
        <mxCell id="0cCKj04-58CsqOeZP6ju-467" value="" style="endArrow=none;html=1;entryX=0.003;entryY=0.2;entryDx=0;entryDy=0;entryPerimeter=0;exitX=0.892;exitY=0.45;exitDx=0;exitDy=0;exitPerimeter=0;" edge="1" parent="1" source="0cCKj04-58CsqOeZP6ju-441" target="0cCKj04-58CsqOeZP6ju-360">
          <mxGeometry width="50" height="50" relative="1" as="geometry">
            <mxPoint x="220.5" y="920" as="sourcePoint" />
            <mxPoint x="290.5" y="930" as="targetPoint" />
          </mxGeometry>
        </mxCell>
        <mxCell id="0cCKj04-58CsqOeZP6ju-468" value="" style="endArrow=none;html=1;entryX=1;entryY=0.5;entryDx=0;entryDy=0;" edge="1" parent="1" source="0cCKj04-58CsqOeZP6ju-406" target="0cCKj04-58CsqOeZP6ju-369">
          <mxGeometry width="50" height="50" relative="1" as="geometry">
            <mxPoint x="680.5" y="1180" as="sourcePoint" />
            <mxPoint x="660.5" y="1120" as="targetPoint" />
          </mxGeometry>
        </mxCell>
        <mxCell id="0cCKj04-58CsqOeZP6ju-469" value="" style="endArrow=none;html=1;exitX=0.917;exitY=0.467;exitDx=0;exitDy=0;entryX=-0.008;entryY=-0.233;entryDx=0;entryDy=0;entryPerimeter=0;exitPerimeter=0;" edge="1" parent="1" source="0cCKj04-58CsqOeZP6ju-542" target="0cCKj04-58CsqOeZP6ju-363">
          <mxGeometry width="50" height="50" relative="1" as="geometry">
            <mxPoint x="230.5" y="958.5000000000002" as="sourcePoint" />
            <mxPoint x="300.5" y="950" as="targetPoint" />
          </mxGeometry>
        </mxCell>
        <mxCell id="0cCKj04-58CsqOeZP6ju-470" value="" style="endArrow=none;html=1;entryX=0;entryY=0.5;entryDx=0;entryDy=0;exitX=1.006;exitY=1.11;exitDx=0;exitDy=0;exitPerimeter=0;" edge="1" parent="1" source="0cCKj04-58CsqOeZP6ju-325" target="0cCKj04-58CsqOeZP6ju-542">
          <mxGeometry width="50" height="50" relative="1" as="geometry">
            <mxPoint x="70.5" y="951" as="sourcePoint" />
            <mxPoint x="140.5" y="958.5000000000002" as="targetPoint" />
          </mxGeometry>
        </mxCell>
        <mxCell id="0cCKj04-58CsqOeZP6ju-471" value="URL" style="shape=rhombus;double=1;perimeter=rhombusPerimeter;whiteSpace=wrap;html=1;align=center;" vertex="1" parent="1">
          <mxGeometry x="-419.5" y="750" width="120" height="60" as="geometry" />
        </mxCell>
        <mxCell id="0cCKj04-58CsqOeZP6ju-472" value="" style="endArrow=classic;html=1;entryX=0.694;entryY=1.167;entryDx=0;entryDy=0;entryPerimeter=0;exitX=0.5;exitY=0;exitDx=0;exitDy=0;" edge="1" parent="1" source="0cCKj04-58CsqOeZP6ju-471" target="0cCKj04-58CsqOeZP6ju-392">
          <mxGeometry width="50" height="50" relative="1" as="geometry">
            <mxPoint x="-389.5" y="720" as="sourcePoint" />
            <mxPoint x="-349.5" y="670" as="targetPoint" />
          </mxGeometry>
        </mxCell>
        <mxCell id="0cCKj04-58CsqOeZP6ju-473" value="" style="shape=link;html=1;entryX=0.5;entryY=1;entryDx=0;entryDy=0;exitX=0.25;exitY=0;exitDx=0;exitDy=0;" edge="1" parent="1" source="0cCKj04-58CsqOeZP6ju-494" target="0cCKj04-58CsqOeZP6ju-471">
          <mxGeometry width="50" height="50" relative="1" as="geometry">
            <mxPoint x="-377.5" y="988" as="sourcePoint" />
            <mxPoint x="-339.5" y="810" as="targetPoint" />
          </mxGeometry>
        </mxCell>
        <mxCell id="0cCKj04-58CsqOeZP6ju-474" value="" style="edgeStyle=orthogonalEdgeStyle;rounded=0;orthogonalLoop=1;jettySize=auto;html=1;exitX=0;exitY=1;exitDx=0;exitDy=0;" edge="1" parent="1" source="0cCKj04-58CsqOeZP6ju-490" target="0cCKj04-58CsqOeZP6ju-336">
          <mxGeometry relative="1" as="geometry">
            <mxPoint x="-263.91176470588243" y="380.294117647059" as="sourcePoint" />
          </mxGeometry>
        </mxCell>
        <mxCell id="0cCKj04-58CsqOeZP6ju-475" value="" style="endArrow=none;html=1;exitX=1.021;exitY=0.868;exitDx=0;exitDy=0;exitPerimeter=0;entryX=0;entryY=0.5;entryDx=0;entryDy=0;" edge="1" parent="1" source="0cCKj04-58CsqOeZP6ju-392" target="0cCKj04-58CsqOeZP6ju-477">
          <mxGeometry width="50" height="50" relative="1" as="geometry">
            <mxPoint x="-329.5" y="720" as="sourcePoint" />
            <mxPoint x="-256.94000000000005" y="728.26" as="targetPoint" />
          </mxGeometry>
        </mxCell>
        <mxCell id="0cCKj04-58CsqOeZP6ju-476" value="" style="endArrow=none;html=1;exitX=1;exitY=0.5;exitDx=0;exitDy=0;entryX=-0.015;entryY=0.206;entryDx=0;entryDy=0;entryPerimeter=0;" edge="1" parent="1" source="0cCKj04-58CsqOeZP6ju-477" target="0cCKj04-58CsqOeZP6ju-359">
          <mxGeometry width="50" height="50" relative="1" as="geometry">
            <mxPoint x="-189.5" y="754" as="sourcePoint" />
            <mxPoint x="-119.5" y="770" as="targetPoint" />
          </mxGeometry>
        </mxCell>
        <mxCell id="0cCKj04-58CsqOeZP6ju-477" value="played" style="shape=rhombus;strokeWidth=2;fontSize=17;perimeter=rhombusPerimeter;whiteSpace=wrap;html=1;align=center;fontSize=14;" vertex="1" parent="1">
          <mxGeometry x="-258.5" y="816" width="99" height="47" as="geometry" />
        </mxCell>
        <mxCell id="0cCKj04-58CsqOeZP6ju-478" value="" style="group" vertex="1" connectable="0" parent="1">
          <mxGeometry x="-700" y="869.5" width="210" height="130" as="geometry" />
        </mxCell>
        <mxCell id="0cCKj04-58CsqOeZP6ju-479" value="" style="group" vertex="1" connectable="0" parent="0cCKj04-58CsqOeZP6ju-478">
          <mxGeometry x="19.5" y="0.5" width="210" height="130" as="geometry" />
        </mxCell>
        <mxCell id="0cCKj04-58CsqOeZP6ju-480" value="" style="shape=ext;strokeWidth=2;margin=10;double=1;whiteSpace=wrap;html=1;align=center;fontSize=14;" vertex="1" parent="0cCKj04-58CsqOeZP6ju-479">
          <mxGeometry width="210" height="130" as="geometry" />
        </mxCell>
        <mxCell id="0cCKj04-58CsqOeZP6ju-481" value="   audioID" style="shape=partialRectangle;top=0;left=0;right=0;bottom=1;align=left;verticalAlign=top;fillColor=none;spacingLeft=34;spacingRight=4;overflow=hidden;rotatable=0;points=[[0,0.5],[1,0.5]];portConstraint=eastwest;dropTarget=0;fontSize=12;strokeWidth=1;fontStyle=1" vertex="1" parent="0cCKj04-58CsqOeZP6ju-479">
          <mxGeometry x="15" y="15" width="179" height="28" as="geometry" />
        </mxCell>
        <mxCell id="0cCKj04-58CsqOeZP6ju-482" value="PK" style="shape=partialRectangle;top=0;left=0;bottom=0;fillColor=none;align=left;verticalAlign=top;spacingLeft=4;spacingRight=4;overflow=hidden;rotatable=0;points=[];portConstraint=eastwest;part=1;fontSize=12;fontStyle=1" vertex="1" connectable="0" parent="0cCKj04-58CsqOeZP6ju-481">
          <mxGeometry width="40" height="28" as="geometry" />
        </mxCell>
        <mxCell id="0cCKj04-58CsqOeZP6ju-483" value="" style="endArrow=none;dashed=1;html=1;entryX=0.5;entryY=0.679;entryDx=0;entryDy=0;entryPerimeter=0;" edge="1" parent="0cCKj04-58CsqOeZP6ju-479" target="0cCKj04-58CsqOeZP6ju-481">
          <mxGeometry width="50" height="50" relative="1" as="geometry">
            <mxPoint x="64.5" y="34" as="sourcePoint" />
            <mxPoint x="88.5" y="34" as="targetPoint" />
          </mxGeometry>
        </mxCell>
        <mxCell id="0cCKj04-58CsqOeZP6ju-484" value="" style="shape=partialRectangle;collapsible=0;dropTarget=0;pointerEvents=0;fillColor=none;top=0;left=0;bottom=0;right=0;points=[[0,0.5],[1,0.5]];portConstraint=eastwest;" vertex="1" parent="0cCKj04-58CsqOeZP6ju-479">
          <mxGeometry x="30" y="54" width="140" height="30" as="geometry" />
        </mxCell>
        <mxCell id="0cCKj04-58CsqOeZP6ju-485" value="" style="shape=partialRectangle;connectable=0;fillColor=none;top=0;left=0;bottom=0;right=0;editable=1;overflow=hidden;" vertex="1" parent="0cCKj04-58CsqOeZP6ju-484">
          <mxGeometry width="23.333333333333332" height="30" as="geometry" />
        </mxCell>
        <mxCell id="0cCKj04-58CsqOeZP6ju-486" value=" URL" style="shape=partialRectangle;connectable=0;fillColor=none;top=0;left=0;bottom=0;right=0;align=left;spacingLeft=6;overflow=hidden;fontStyle=0;spacingTop=1;strokeWidth=1;" vertex="1" parent="0cCKj04-58CsqOeZP6ju-484">
          <mxGeometry x="23.333333333333332" width="116.66666666666666" height="30" as="geometry" />
        </mxCell>
        <mxCell id="0cCKj04-58CsqOeZP6ju-487" value="FK       native_name" style="text;strokeColor=none;fillColor=none;spacingLeft=4;spacingRight=4;overflow=hidden;rotatable=0;points=[[0,0.5],[1,0.5]];portConstraint=eastwest;fontSize=12;fontStyle=2" vertex="1" parent="0cCKj04-58CsqOeZP6ju-479">
          <mxGeometry x="18" y="84" width="136" height="26" as="geometry" />
        </mxCell>
        <mxCell id="0cCKj04-58CsqOeZP6ju-488" value="" style="endArrow=none;dashed=1;html=1;entryX=0.811;entryY=0.813;entryDx=0;entryDy=0;entryPerimeter=0;" edge="1" parent="0cCKj04-58CsqOeZP6ju-479" target="0cCKj04-58CsqOeZP6ju-487">
          <mxGeometry width="50" height="50" relative="1" as="geometry">
            <mxPoint x="57" y="104.5" as="sourcePoint" />
            <mxPoint x="115" y="104.5" as="targetPoint" />
            <Array as="points">
              <mxPoint x="143" y="105.5" />
            </Array>
          </mxGeometry>
        </mxCell>
        <mxCell id="0cCKj04-58CsqOeZP6ju-489" value="" style="endArrow=none;dashed=1;html=1;" edge="1" parent="0cCKj04-58CsqOeZP6ju-479">
          <mxGeometry width="50" height="50" relative="1" as="geometry">
            <mxPoint x="62" y="74.5" as="sourcePoint" />
            <mxPoint x="86" y="74.5" as="targetPoint" />
          </mxGeometry>
        </mxCell>
        <mxCell id="0cCKj04-58CsqOeZP6ju-490" value="band_member" style="shape=rhombus;strokeWidth=2;fontSize=17;perimeter=rhombusPerimeter;whiteSpace=wrap;html=1;align=center;fontSize=14;" vertex="1" parent="1">
          <mxGeometry x="-273.5" y="322.5" width="129" height="50" as="geometry" />
        </mxCell>
        <mxCell id="0cCKj04-58CsqOeZP6ju-491" value="" style="group" vertex="1" connectable="0" parent="1">
          <mxGeometry x="-425" y="991" width="210" height="130" as="geometry" />
        </mxCell>
        <mxCell id="0cCKj04-58CsqOeZP6ju-492" value="" style="group" vertex="1" connectable="0" parent="0cCKj04-58CsqOeZP6ju-491">
          <mxGeometry width="210" height="130" as="geometry" />
        </mxCell>
        <mxCell id="0cCKj04-58CsqOeZP6ju-493" value="" style="group" vertex="1" connectable="0" parent="0cCKj04-58CsqOeZP6ju-492">
          <mxGeometry width="210" height="130" as="geometry" />
        </mxCell>
        <mxCell id="0cCKj04-58CsqOeZP6ju-494" value="" style="shape=ext;strokeWidth=2;margin=10;double=1;whiteSpace=wrap;html=1;align=center;fontSize=14;" vertex="1" parent="0cCKj04-58CsqOeZP6ju-493">
          <mxGeometry width="210" height="130" as="geometry" />
        </mxCell>
        <mxCell id="0cCKj04-58CsqOeZP6ju-495" value="    videoID" style="shape=partialRectangle;top=0;left=0;right=0;bottom=1;align=left;verticalAlign=top;fillColor=none;spacingLeft=34;spacingRight=4;overflow=hidden;rotatable=0;points=[[0,0.5],[1,0.5]];portConstraint=eastwest;dropTarget=0;fontSize=12;strokeWidth=1;fontStyle=1" vertex="1" parent="0cCKj04-58CsqOeZP6ju-493">
          <mxGeometry x="15" y="15" width="179" height="28" as="geometry" />
        </mxCell>
        <mxCell id="0cCKj04-58CsqOeZP6ju-496" value="PK" style="shape=partialRectangle;top=0;left=0;bottom=0;fillColor=none;align=left;verticalAlign=top;spacingLeft=4;spacingRight=4;overflow=hidden;rotatable=0;points=[];portConstraint=eastwest;part=1;fontSize=12;fontStyle=1" vertex="1" connectable="0" parent="0cCKj04-58CsqOeZP6ju-495">
          <mxGeometry width="40" height="28" as="geometry" />
        </mxCell>
        <mxCell id="0cCKj04-58CsqOeZP6ju-497" value="" style="endArrow=none;dashed=1;html=1;" edge="1" parent="0cCKj04-58CsqOeZP6ju-493">
          <mxGeometry width="50" height="50" relative="1" as="geometry">
            <mxPoint x="59" y="34" as="sourcePoint" />
            <mxPoint x="113" y="34.5" as="targetPoint" />
          </mxGeometry>
        </mxCell>
        <mxCell id="0cCKj04-58CsqOeZP6ju-498" value="" style="shape=partialRectangle;collapsible=0;dropTarget=0;pointerEvents=0;fillColor=none;top=0;left=0;bottom=0;right=0;points=[[0,0.5],[1,0.5]];portConstraint=eastwest;" vertex="1" parent="0cCKj04-58CsqOeZP6ju-493">
          <mxGeometry x="30" y="54" width="140" height="30" as="geometry" />
        </mxCell>
        <mxCell id="0cCKj04-58CsqOeZP6ju-499" value="" style="shape=partialRectangle;connectable=0;fillColor=none;top=0;left=0;bottom=0;right=0;editable=1;overflow=hidden;" vertex="1" parent="0cCKj04-58CsqOeZP6ju-498">
          <mxGeometry width="23.333333333333332" height="30" as="geometry" />
        </mxCell>
        <mxCell id="0cCKj04-58CsqOeZP6ju-500" value=" URL" style="shape=partialRectangle;connectable=0;fillColor=none;top=0;left=0;bottom=0;right=0;align=left;spacingLeft=6;overflow=hidden;fontStyle=0;spacingTop=1;strokeWidth=1;" vertex="1" parent="0cCKj04-58CsqOeZP6ju-498">
          <mxGeometry x="23.333333333333332" width="116.66666666666666" height="30" as="geometry" />
        </mxCell>
        <mxCell id="0cCKj04-58CsqOeZP6ju-501" value="FK       native_name" style="text;strokeColor=none;fillColor=none;spacingLeft=4;spacingRight=4;overflow=hidden;rotatable=0;points=[[0,0.5],[1,0.5]];portConstraint=eastwest;fontSize=12;fontStyle=2" vertex="1" parent="0cCKj04-58CsqOeZP6ju-493">
          <mxGeometry x="18" y="84" width="136" height="26" as="geometry" />
        </mxCell>
        <mxCell id="0cCKj04-58CsqOeZP6ju-502" value="" style="endArrow=none;dashed=1;html=1;entryX=0.811;entryY=0.813;entryDx=0;entryDy=0;entryPerimeter=0;" edge="1" parent="0cCKj04-58CsqOeZP6ju-493" target="0cCKj04-58CsqOeZP6ju-501">
          <mxGeometry width="50" height="50" relative="1" as="geometry">
            <mxPoint x="57" y="104.5" as="sourcePoint" />
            <mxPoint x="115" y="104.5" as="targetPoint" />
            <Array as="points">
              <mxPoint x="143" y="105.5" />
            </Array>
          </mxGeometry>
        </mxCell>
        <mxCell id="0cCKj04-58CsqOeZP6ju-503" value="" style="endArrow=none;dashed=1;html=1;" edge="1" parent="0cCKj04-58CsqOeZP6ju-493">
          <mxGeometry width="50" height="50" relative="1" as="geometry">
            <mxPoint x="62" y="74.5" as="sourcePoint" />
            <mxPoint x="86" y="74.5" as="targetPoint" />
          </mxGeometry>
        </mxCell>
        <mxCell id="0cCKj04-58CsqOeZP6ju-504" value="" style="group" vertex="1" connectable="0" parent="1">
          <mxGeometry x="-134.5" y="1012" width="210" height="130" as="geometry" />
        </mxCell>
        <mxCell id="0cCKj04-58CsqOeZP6ju-505" value="" style="group" vertex="1" connectable="0" parent="0cCKj04-58CsqOeZP6ju-504">
          <mxGeometry width="210" height="130" as="geometry" />
        </mxCell>
        <mxCell id="0cCKj04-58CsqOeZP6ju-506" value="" style="group" vertex="1" connectable="0" parent="0cCKj04-58CsqOeZP6ju-505">
          <mxGeometry width="210" height="130" as="geometry" />
        </mxCell>
        <mxCell id="0cCKj04-58CsqOeZP6ju-507" value="" style="shape=ext;strokeWidth=2;margin=10;double=1;whiteSpace=wrap;html=1;align=center;fontSize=14;" vertex="1" parent="0cCKj04-58CsqOeZP6ju-506">
          <mxGeometry width="210" height="130" as="geometry" />
        </mxCell>
        <mxCell id="0cCKj04-58CsqOeZP6ju-508" value="  producerID" style="shape=partialRectangle;top=0;left=0;right=0;bottom=1;align=left;verticalAlign=top;fillColor=none;spacingLeft=34;spacingRight=4;overflow=hidden;rotatable=0;points=[[0,0.5],[1,0.5]];portConstraint=eastwest;dropTarget=0;fontSize=12;strokeWidth=1;fontStyle=1" vertex="1" parent="0cCKj04-58CsqOeZP6ju-506">
          <mxGeometry x="15" y="15" width="179" height="28" as="geometry" />
        </mxCell>
        <mxCell id="0cCKj04-58CsqOeZP6ju-509" value="PK" style="shape=partialRectangle;top=0;left=0;bottom=0;fillColor=none;align=left;verticalAlign=top;spacingLeft=4;spacingRight=4;overflow=hidden;rotatable=0;points=[];portConstraint=eastwest;part=1;fontSize=12;fontStyle=1" vertex="1" connectable="0" parent="0cCKj04-58CsqOeZP6ju-508">
          <mxGeometry width="40" height="28" as="geometry" />
        </mxCell>
        <mxCell id="0cCKj04-58CsqOeZP6ju-510" value="" style="endArrow=none;dashed=1;html=1;" edge="1" parent="0cCKj04-58CsqOeZP6ju-506">
          <mxGeometry width="50" height="50" relative="1" as="geometry">
            <mxPoint x="59" y="34" as="sourcePoint" />
            <mxPoint x="113" y="34.5" as="targetPoint" />
          </mxGeometry>
        </mxCell>
        <mxCell id="0cCKj04-58CsqOeZP6ju-511" value="" style="shape=partialRectangle;collapsible=0;dropTarget=0;pointerEvents=0;fillColor=none;top=0;left=0;bottom=0;right=0;points=[[0,0.5],[1,0.5]];portConstraint=eastwest;" vertex="1" parent="0cCKj04-58CsqOeZP6ju-506">
          <mxGeometry x="30" y="54" width="140" height="30" as="geometry" />
        </mxCell>
        <mxCell id="0cCKj04-58CsqOeZP6ju-512" value="" style="shape=partialRectangle;connectable=0;fillColor=none;top=0;left=0;bottom=0;right=0;editable=1;overflow=hidden;" vertex="1" parent="0cCKj04-58CsqOeZP6ju-511">
          <mxGeometry width="23.333333333333332" height="30" as="geometry" />
        </mxCell>
        <mxCell id="0cCKj04-58CsqOeZP6ju-513" value="full_name" style="shape=partialRectangle;connectable=0;fillColor=none;top=0;left=0;bottom=0;right=0;align=left;spacingLeft=6;overflow=hidden;fontStyle=0;spacingTop=1;strokeWidth=1;" vertex="1" parent="0cCKj04-58CsqOeZP6ju-511">
          <mxGeometry x="23.333333333333332" width="116.66666666666666" height="30" as="geometry" />
        </mxCell>
        <mxCell id="0cCKj04-58CsqOeZP6ju-514" value="FK       native_name" style="text;strokeColor=none;fillColor=none;spacingLeft=4;spacingRight=4;overflow=hidden;rotatable=0;points=[[0,0.5],[1,0.5]];portConstraint=eastwest;fontSize=12;fontStyle=2" vertex="1" parent="0cCKj04-58CsqOeZP6ju-506">
          <mxGeometry x="18" y="84" width="136" height="26" as="geometry" />
        </mxCell>
        <mxCell id="0cCKj04-58CsqOeZP6ju-515" value="" style="endArrow=none;dashed=1;html=1;entryX=0.811;entryY=0.813;entryDx=0;entryDy=0;entryPerimeter=0;" edge="1" parent="0cCKj04-58CsqOeZP6ju-506" target="0cCKj04-58CsqOeZP6ju-514">
          <mxGeometry width="50" height="50" relative="1" as="geometry">
            <mxPoint x="57" y="104.5" as="sourcePoint" />
            <mxPoint x="115" y="104.5" as="targetPoint" />
            <Array as="points">
              <mxPoint x="143" y="105.5" />
            </Array>
          </mxGeometry>
        </mxCell>
        <mxCell id="0cCKj04-58CsqOeZP6ju-516" value="" style="endArrow=none;dashed=1;html=1;entryX=0.71;entryY=-0.312;entryDx=0;entryDy=0;entryPerimeter=0;" edge="1" parent="0cCKj04-58CsqOeZP6ju-506" target="0cCKj04-58CsqOeZP6ju-514">
          <mxGeometry width="50" height="50" relative="1" as="geometry">
            <mxPoint x="62" y="74.5" as="sourcePoint" />
            <mxPoint x="86" y="74.5" as="targetPoint" />
          </mxGeometry>
        </mxCell>
        <mxCell id="0cCKj04-58CsqOeZP6ju-517" value="" style="group" vertex="1" connectable="0" parent="0cCKj04-58CsqOeZP6ju-504">
          <mxGeometry x="90" y="144" width="210" height="130" as="geometry" />
        </mxCell>
        <mxCell id="0cCKj04-58CsqOeZP6ju-518" value="" style="group" vertex="1" connectable="0" parent="0cCKj04-58CsqOeZP6ju-517">
          <mxGeometry width="210" height="130" as="geometry" />
        </mxCell>
        <mxCell id="0cCKj04-58CsqOeZP6ju-519" value="" style="shape=ext;strokeWidth=2;margin=10;double=1;whiteSpace=wrap;html=1;align=center;fontSize=14;" vertex="1" parent="0cCKj04-58CsqOeZP6ju-518">
          <mxGeometry width="210" height="130" as="geometry" />
        </mxCell>
        <mxCell id="0cCKj04-58CsqOeZP6ju-520" value="  music_directorD" style="shape=partialRectangle;top=0;left=0;right=0;bottom=1;align=left;verticalAlign=top;fillColor=none;spacingLeft=34;spacingRight=4;overflow=hidden;rotatable=0;points=[[0,0.5],[1,0.5]];portConstraint=eastwest;dropTarget=0;fontSize=12;strokeWidth=1;fontStyle=1" vertex="1" parent="0cCKj04-58CsqOeZP6ju-518">
          <mxGeometry x="15" y="15" width="179" height="28" as="geometry" />
        </mxCell>
        <mxCell id="0cCKj04-58CsqOeZP6ju-521" value="PK" style="shape=partialRectangle;top=0;left=0;bottom=0;fillColor=none;align=left;verticalAlign=top;spacingLeft=4;spacingRight=4;overflow=hidden;rotatable=0;points=[];portConstraint=eastwest;part=1;fontSize=12;fontStyle=1" vertex="1" connectable="0" parent="0cCKj04-58CsqOeZP6ju-520">
          <mxGeometry width="40" height="28" as="geometry" />
        </mxCell>
        <mxCell id="0cCKj04-58CsqOeZP6ju-522" value="" style="shape=partialRectangle;collapsible=0;dropTarget=0;pointerEvents=0;fillColor=none;top=0;left=0;bottom=0;right=0;points=[[0,0.5],[1,0.5]];portConstraint=eastwest;" vertex="1" parent="0cCKj04-58CsqOeZP6ju-518">
          <mxGeometry x="30" y="54" width="140" height="30" as="geometry" />
        </mxCell>
        <mxCell id="0cCKj04-58CsqOeZP6ju-523" value="" style="shape=partialRectangle;connectable=0;fillColor=none;top=0;left=0;bottom=0;right=0;editable=1;overflow=hidden;" vertex="1" parent="0cCKj04-58CsqOeZP6ju-522">
          <mxGeometry width="23.333333333333332" height="30" as="geometry" />
        </mxCell>
        <mxCell id="0cCKj04-58CsqOeZP6ju-524" value="full_name" style="shape=partialRectangle;connectable=0;fillColor=none;top=0;left=0;bottom=0;right=0;align=left;spacingLeft=6;overflow=hidden;fontStyle=0;spacingTop=1;strokeWidth=1;" vertex="1" parent="0cCKj04-58CsqOeZP6ju-522">
          <mxGeometry x="23.333333333333332" width="116.66666666666666" height="30" as="geometry" />
        </mxCell>
        <mxCell id="0cCKj04-58CsqOeZP6ju-525" value="FK       native_name" style="text;strokeColor=none;fillColor=none;spacingLeft=4;spacingRight=4;overflow=hidden;rotatable=0;points=[[0,0.5],[1,0.5]];portConstraint=eastwest;fontSize=12;fontStyle=2" vertex="1" parent="0cCKj04-58CsqOeZP6ju-518">
          <mxGeometry x="18" y="84" width="136" height="26" as="geometry" />
        </mxCell>
        <mxCell id="0cCKj04-58CsqOeZP6ju-526" value="" style="endArrow=none;dashed=1;html=1;entryX=0.811;entryY=0.813;entryDx=0;entryDy=0;entryPerimeter=0;" edge="1" parent="0cCKj04-58CsqOeZP6ju-518" target="0cCKj04-58CsqOeZP6ju-525">
          <mxGeometry width="50" height="50" relative="1" as="geometry">
            <mxPoint x="57" y="104.5" as="sourcePoint" />
            <mxPoint x="115" y="104.5" as="targetPoint" />
            <Array as="points">
              <mxPoint x="143" y="105.5" />
            </Array>
          </mxGeometry>
        </mxCell>
        <mxCell id="0cCKj04-58CsqOeZP6ju-527" value="" style="endArrow=none;dashed=1;html=1;entryX=0.71;entryY=-0.312;entryDx=0;entryDy=0;entryPerimeter=0;" edge="1" parent="0cCKj04-58CsqOeZP6ju-518" target="0cCKj04-58CsqOeZP6ju-525">
          <mxGeometry width="50" height="50" relative="1" as="geometry">
            <mxPoint x="62" y="74.5" as="sourcePoint" />
            <mxPoint x="86" y="74.5" as="targetPoint" />
          </mxGeometry>
        </mxCell>
        <mxCell id="0cCKj04-58CsqOeZP6ju-528" value="" style="endArrow=none;dashed=1;html=1;" edge="1" parent="0cCKj04-58CsqOeZP6ju-518">
          <mxGeometry width="50" height="50" relative="1" as="geometry">
            <mxPoint x="60" y="35" as="sourcePoint" />
            <mxPoint x="140" y="35" as="targetPoint" />
          </mxGeometry>
        </mxCell>
        <mxCell id="0cCKj04-58CsqOeZP6ju-529" value="" style="group" vertex="1" connectable="0" parent="1">
          <mxGeometry x="-159.5" y="685" width="218" height="130" as="geometry" />
        </mxCell>
        <mxCell id="0cCKj04-58CsqOeZP6ju-530" value="" style="group" vertex="1" connectable="0" parent="0cCKj04-58CsqOeZP6ju-529">
          <mxGeometry width="218.00000000000003" height="130" as="geometry" />
        </mxCell>
        <mxCell id="0cCKj04-58CsqOeZP6ju-531" value="" style="group" vertex="1" connectable="0" parent="0cCKj04-58CsqOeZP6ju-530">
          <mxGeometry width="218.00000000000003" height="130" as="geometry" />
        </mxCell>
        <mxCell id="0cCKj04-58CsqOeZP6ju-532" value="" style="shape=ext;strokeWidth=2;margin=10;double=1;whiteSpace=wrap;html=1;align=center;fontSize=14;" vertex="1" parent="0cCKj04-58CsqOeZP6ju-531">
          <mxGeometry width="218.00000000000003" height="130" as="geometry" />
        </mxCell>
        <mxCell id="0cCKj04-58CsqOeZP6ju-533" value="  directorID" style="shape=partialRectangle;top=0;left=0;right=0;bottom=1;align=left;verticalAlign=top;fillColor=none;spacingLeft=34;spacingRight=4;overflow=hidden;rotatable=0;points=[[0,0.5],[1,0.5]];portConstraint=eastwest;dropTarget=0;fontSize=12;strokeWidth=1;fontStyle=1" vertex="1" parent="0cCKj04-58CsqOeZP6ju-531">
          <mxGeometry x="15.571428571428573" y="15" width="185.81904761904764" height="28" as="geometry" />
        </mxCell>
        <mxCell id="0cCKj04-58CsqOeZP6ju-534" value="PK" style="shape=partialRectangle;top=0;left=0;bottom=0;fillColor=none;align=left;verticalAlign=top;spacingLeft=4;spacingRight=4;overflow=hidden;rotatable=0;points=[];portConstraint=eastwest;part=1;fontSize=12;fontStyle=1" vertex="1" connectable="0" parent="0cCKj04-58CsqOeZP6ju-533">
          <mxGeometry width="41.523809523809526" height="28" as="geometry" />
        </mxCell>
        <mxCell id="0cCKj04-58CsqOeZP6ju-535" value="" style="endArrow=none;dashed=1;html=1;" edge="1" parent="0cCKj04-58CsqOeZP6ju-531">
          <mxGeometry width="50" height="50" relative="1" as="geometry">
            <mxPoint x="61.247619047619054" y="34" as="sourcePoint" />
            <mxPoint x="117.30476190476192" y="34.5" as="targetPoint" />
          </mxGeometry>
        </mxCell>
        <mxCell id="0cCKj04-58CsqOeZP6ju-536" value="" style="shape=partialRectangle;collapsible=0;dropTarget=0;pointerEvents=0;fillColor=none;top=0;left=0;bottom=0;right=0;points=[[0,0.5],[1,0.5]];portConstraint=eastwest;" vertex="1" parent="0cCKj04-58CsqOeZP6ju-531">
          <mxGeometry x="31.142857142857146" y="54" width="145.33333333333334" height="30" as="geometry" />
        </mxCell>
        <mxCell id="0cCKj04-58CsqOeZP6ju-537" value="" style="shape=partialRectangle;connectable=0;fillColor=none;top=0;left=0;bottom=0;right=0;editable=1;overflow=hidden;" vertex="1" parent="0cCKj04-58CsqOeZP6ju-536">
          <mxGeometry width="24.22222222222222" height="30" as="geometry" />
        </mxCell>
        <mxCell id="0cCKj04-58CsqOeZP6ju-538" value="full_name" style="shape=partialRectangle;connectable=0;fillColor=none;top=0;left=0;bottom=0;right=0;align=left;spacingLeft=6;overflow=hidden;fontStyle=0;spacingTop=1;strokeWidth=1;" vertex="1" parent="0cCKj04-58CsqOeZP6ju-536">
          <mxGeometry x="24.22222222222222" width="121.11111111111111" height="30" as="geometry" />
        </mxCell>
        <mxCell id="0cCKj04-58CsqOeZP6ju-539" value="FK       native_name" style="text;strokeColor=none;fillColor=none;spacingLeft=4;spacingRight=4;overflow=hidden;rotatable=0;points=[[0,0.5],[1,0.5]];portConstraint=eastwest;fontSize=12;fontStyle=2" vertex="1" parent="0cCKj04-58CsqOeZP6ju-531">
          <mxGeometry x="18.685714285714287" y="84" width="141.1809523809524" height="26" as="geometry" />
        </mxCell>
        <mxCell id="0cCKj04-58CsqOeZP6ju-540" value="" style="endArrow=none;dashed=1;html=1;entryX=0.811;entryY=0.813;entryDx=0;entryDy=0;entryPerimeter=0;" edge="1" parent="0cCKj04-58CsqOeZP6ju-531" target="0cCKj04-58CsqOeZP6ju-539">
          <mxGeometry width="50" height="50" relative="1" as="geometry">
            <mxPoint x="59.17142857142858" y="104.5" as="sourcePoint" />
            <mxPoint x="119.3809523809524" y="104.5" as="targetPoint" />
            <Array as="points">
              <mxPoint x="148.44761904761907" y="105.5" />
            </Array>
          </mxGeometry>
        </mxCell>
        <mxCell id="0cCKj04-58CsqOeZP6ju-541" value="" style="endArrow=none;dashed=1;html=1;entryX=0.71;entryY=-0.312;entryDx=0;entryDy=0;entryPerimeter=0;" edge="1" parent="0cCKj04-58CsqOeZP6ju-531" target="0cCKj04-58CsqOeZP6ju-539">
          <mxGeometry width="50" height="50" relative="1" as="geometry">
            <mxPoint x="64.36190476190477" y="74.5" as="sourcePoint" />
            <mxPoint x="89.27619047619048" y="74.5" as="targetPoint" />
          </mxGeometry>
        </mxCell>
        <mxCell id="0cCKj04-58CsqOeZP6ju-542" value="made_in" style="shape=rhombus;strokeWidth=2;fontSize=17;perimeter=rhombusPerimeter;whiteSpace=wrap;html=1;align=center;fontSize=14;" vertex="1" parent="1">
          <mxGeometry x="150.5" y="927.5" width="80" height="45" as="geometry" />
        </mxCell>
        <mxCell id="0cCKj04-58CsqOeZP6ju-543" value="spoken" style="shape=rhombus;strokeWidth=2;fontSize=17;perimeter=rhombusPerimeter;whiteSpace=wrap;html=1;align=center;fontSize=14;" vertex="1" parent="1">
          <mxGeometry x="183.5" y="1200" width="97" height="50" as="geometry" />
        </mxCell>
        <mxCell id="0cCKj04-58CsqOeZP6ju-544" value="" style="group" vertex="1" connectable="0" parent="1">
          <mxGeometry x="503" y="570" width="210" height="130" as="geometry" />
        </mxCell>
        <mxCell id="0cCKj04-58CsqOeZP6ju-545" value="" style="group" vertex="1" connectable="0" parent="0cCKj04-58CsqOeZP6ju-544">
          <mxGeometry width="210" height="130" as="geometry" />
        </mxCell>
        <mxCell id="0cCKj04-58CsqOeZP6ju-546" value="" style="group" vertex="1" connectable="0" parent="0cCKj04-58CsqOeZP6ju-545">
          <mxGeometry width="210" height="130" as="geometry" />
        </mxCell>
        <mxCell id="0cCKj04-58CsqOeZP6ju-547" value="" style="shape=ext;strokeWidth=2;margin=10;double=1;whiteSpace=wrap;html=1;align=center;fontSize=14;" vertex="1" parent="0cCKj04-58CsqOeZP6ju-546">
          <mxGeometry width="210" height="130" as="geometry" />
        </mxCell>
        <mxCell id="0cCKj04-58CsqOeZP6ju-548" value="  actorsID" style="shape=partialRectangle;top=0;left=0;right=0;bottom=1;align=left;verticalAlign=top;fillColor=none;spacingLeft=34;spacingRight=4;overflow=hidden;rotatable=0;points=[[0,0.5],[1,0.5]];portConstraint=eastwest;dropTarget=0;fontSize=12;strokeWidth=1;fontStyle=1" vertex="1" parent="0cCKj04-58CsqOeZP6ju-546">
          <mxGeometry x="15" y="15" width="179" height="28" as="geometry" />
        </mxCell>
        <mxCell id="0cCKj04-58CsqOeZP6ju-549" value="PK" style="shape=partialRectangle;top=0;left=0;bottom=0;fillColor=none;align=left;verticalAlign=top;spacingLeft=4;spacingRight=4;overflow=hidden;rotatable=0;points=[];portConstraint=eastwest;part=1;fontSize=12;fontStyle=1" vertex="1" connectable="0" parent="0cCKj04-58CsqOeZP6ju-548">
          <mxGeometry width="40" height="28" as="geometry" />
        </mxCell>
        <mxCell id="0cCKj04-58CsqOeZP6ju-550" value="" style="endArrow=none;dashed=1;html=1;" edge="1" parent="0cCKj04-58CsqOeZP6ju-546">
          <mxGeometry width="50" height="50" relative="1" as="geometry">
            <mxPoint x="59" y="34" as="sourcePoint" />
            <mxPoint x="113" y="34.5" as="targetPoint" />
          </mxGeometry>
        </mxCell>
        <mxCell id="0cCKj04-58CsqOeZP6ju-551" value="" style="shape=partialRectangle;collapsible=0;dropTarget=0;pointerEvents=0;fillColor=none;top=0;left=0;bottom=0;right=0;points=[[0,0.5],[1,0.5]];portConstraint=eastwest;" vertex="1" parent="0cCKj04-58CsqOeZP6ju-546">
          <mxGeometry x="30" y="54" width="140" height="30" as="geometry" />
        </mxCell>
        <mxCell id="0cCKj04-58CsqOeZP6ju-552" value="" style="shape=partialRectangle;connectable=0;fillColor=none;top=0;left=0;bottom=0;right=0;editable=1;overflow=hidden;" vertex="1" parent="0cCKj04-58CsqOeZP6ju-551">
          <mxGeometry width="23.333333333333332" height="30" as="geometry" />
        </mxCell>
        <mxCell id="0cCKj04-58CsqOeZP6ju-553" value="full_name" style="shape=partialRectangle;connectable=0;fillColor=none;top=0;left=0;bottom=0;right=0;align=left;spacingLeft=6;overflow=hidden;fontStyle=0;spacingTop=1;strokeWidth=1;" vertex="1" parent="0cCKj04-58CsqOeZP6ju-551">
          <mxGeometry x="23.333333333333332" width="116.66666666666666" height="30" as="geometry" />
        </mxCell>
        <mxCell id="0cCKj04-58CsqOeZP6ju-554" value="FK       native_name" style="text;strokeColor=none;fillColor=none;spacingLeft=4;spacingRight=4;overflow=hidden;rotatable=0;points=[[0,0.5],[1,0.5]];portConstraint=eastwest;fontSize=12;fontStyle=2" vertex="1" parent="0cCKj04-58CsqOeZP6ju-546">
          <mxGeometry x="18" y="84" width="136" height="26" as="geometry" />
        </mxCell>
        <mxCell id="0cCKj04-58CsqOeZP6ju-555" value="" style="endArrow=none;dashed=1;html=1;entryX=0.811;entryY=0.813;entryDx=0;entryDy=0;entryPerimeter=0;" edge="1" parent="0cCKj04-58CsqOeZP6ju-546" target="0cCKj04-58CsqOeZP6ju-554">
          <mxGeometry width="50" height="50" relative="1" as="geometry">
            <mxPoint x="57" y="104.5" as="sourcePoint" />
            <mxPoint x="115" y="104.5" as="targetPoint" />
            <Array as="points">
              <mxPoint x="143" y="105.5" />
            </Array>
          </mxGeometry>
        </mxCell>
        <mxCell id="0cCKj04-58CsqOeZP6ju-556" value="" style="endArrow=none;dashed=1;html=1;entryX=0.71;entryY=-0.312;entryDx=0;entryDy=0;entryPerimeter=0;" edge="1" parent="0cCKj04-58CsqOeZP6ju-546" target="0cCKj04-58CsqOeZP6ju-554">
          <mxGeometry width="50" height="50" relative="1" as="geometry">
            <mxPoint x="62" y="74.5" as="sourcePoint" />
            <mxPoint x="86" y="74.5" as="targetPoint" />
          </mxGeometry>
        </mxCell>
        <mxCell id="0cCKj04-58CsqOeZP6ju-557" value="" style="group" vertex="1" connectable="0" parent="1">
          <mxGeometry x="673" y="724.5" width="210" height="130" as="geometry" />
        </mxCell>
        <mxCell id="0cCKj04-58CsqOeZP6ju-558" value="" style="group" vertex="1" connectable="0" parent="0cCKj04-58CsqOeZP6ju-557">
          <mxGeometry width="210" height="130" as="geometry" />
        </mxCell>
        <mxCell id="0cCKj04-58CsqOeZP6ju-559" value="" style="group" vertex="1" connectable="0" parent="0cCKj04-58CsqOeZP6ju-558">
          <mxGeometry width="210" height="130" as="geometry" />
        </mxCell>
        <mxCell id="0cCKj04-58CsqOeZP6ju-560" value="" style="shape=ext;strokeWidth=2;margin=10;double=1;whiteSpace=wrap;html=1;align=center;fontSize=14;" vertex="1" parent="0cCKj04-58CsqOeZP6ju-559">
          <mxGeometry width="210" height="130" as="geometry" />
        </mxCell>
        <mxCell id="0cCKj04-58CsqOeZP6ju-561" value="  actressesID" style="shape=partialRectangle;top=0;left=0;right=0;bottom=1;align=left;verticalAlign=top;fillColor=none;spacingLeft=34;spacingRight=4;overflow=hidden;rotatable=0;points=[[0,0.5],[1,0.5]];portConstraint=eastwest;dropTarget=0;fontSize=12;strokeWidth=1;fontStyle=1" vertex="1" parent="0cCKj04-58CsqOeZP6ju-559">
          <mxGeometry x="15" y="15" width="179" height="28" as="geometry" />
        </mxCell>
        <mxCell id="0cCKj04-58CsqOeZP6ju-562" value="PK" style="shape=partialRectangle;top=0;left=0;bottom=0;fillColor=none;align=left;verticalAlign=top;spacingLeft=4;spacingRight=4;overflow=hidden;rotatable=0;points=[];portConstraint=eastwest;part=1;fontSize=12;fontStyle=1" vertex="1" connectable="0" parent="0cCKj04-58CsqOeZP6ju-561">
          <mxGeometry width="40" height="28" as="geometry" />
        </mxCell>
        <mxCell id="0cCKj04-58CsqOeZP6ju-563" value="" style="endArrow=none;dashed=1;html=1;" edge="1" parent="0cCKj04-58CsqOeZP6ju-559">
          <mxGeometry width="50" height="50" relative="1" as="geometry">
            <mxPoint x="59" y="34" as="sourcePoint" />
            <mxPoint x="113" y="34.5" as="targetPoint" />
          </mxGeometry>
        </mxCell>
        <mxCell id="0cCKj04-58CsqOeZP6ju-564" value="" style="shape=partialRectangle;collapsible=0;dropTarget=0;pointerEvents=0;fillColor=none;top=0;left=0;bottom=0;right=0;points=[[0,0.5],[1,0.5]];portConstraint=eastwest;" vertex="1" parent="0cCKj04-58CsqOeZP6ju-559">
          <mxGeometry x="30" y="54" width="140" height="30" as="geometry" />
        </mxCell>
        <mxCell id="0cCKj04-58CsqOeZP6ju-565" value="" style="shape=partialRectangle;connectable=0;fillColor=none;top=0;left=0;bottom=0;right=0;editable=1;overflow=hidden;" vertex="1" parent="0cCKj04-58CsqOeZP6ju-564">
          <mxGeometry width="23.333333333333332" height="30" as="geometry" />
        </mxCell>
        <mxCell id="0cCKj04-58CsqOeZP6ju-566" value="full_name" style="shape=partialRectangle;connectable=0;fillColor=none;top=0;left=0;bottom=0;right=0;align=left;spacingLeft=6;overflow=hidden;fontStyle=0;spacingTop=1;strokeWidth=1;" vertex="1" parent="0cCKj04-58CsqOeZP6ju-564">
          <mxGeometry x="23.333333333333332" width="116.66666666666666" height="30" as="geometry" />
        </mxCell>
        <mxCell id="0cCKj04-58CsqOeZP6ju-567" value="FK       native_name" style="text;strokeColor=none;fillColor=none;spacingLeft=4;spacingRight=4;overflow=hidden;rotatable=0;points=[[0,0.5],[1,0.5]];portConstraint=eastwest;fontSize=12;fontStyle=2" vertex="1" parent="0cCKj04-58CsqOeZP6ju-559">
          <mxGeometry x="18" y="84" width="136" height="26" as="geometry" />
        </mxCell>
        <mxCell id="0cCKj04-58CsqOeZP6ju-568" value="" style="endArrow=none;dashed=1;html=1;entryX=0.811;entryY=0.813;entryDx=0;entryDy=0;entryPerimeter=0;" edge="1" parent="0cCKj04-58CsqOeZP6ju-559" target="0cCKj04-58CsqOeZP6ju-567">
          <mxGeometry width="50" height="50" relative="1" as="geometry">
            <mxPoint x="57" y="104.5" as="sourcePoint" />
            <mxPoint x="115" y="104.5" as="targetPoint" />
            <Array as="points">
              <mxPoint x="143" y="105.5" />
            </Array>
          </mxGeometry>
        </mxCell>
        <mxCell id="0cCKj04-58CsqOeZP6ju-569" value="" style="endArrow=none;dashed=1;html=1;entryX=0.71;entryY=-0.312;entryDx=0;entryDy=0;entryPerimeter=0;" edge="1" parent="0cCKj04-58CsqOeZP6ju-559" target="0cCKj04-58CsqOeZP6ju-567">
          <mxGeometry width="50" height="50" relative="1" as="geometry">
            <mxPoint x="62" y="74.5" as="sourcePoint" />
            <mxPoint x="86" y="74.5" as="targetPoint" />
          </mxGeometry>
        </mxCell>
        <mxCell id="0cCKj04-58CsqOeZP6ju-570" value="" style="group" vertex="1" connectable="0" parent="1">
          <mxGeometry x="735.5" y="882" width="210" height="130" as="geometry" />
        </mxCell>
        <mxCell id="0cCKj04-58CsqOeZP6ju-571" value="" style="group" vertex="1" connectable="0" parent="0cCKj04-58CsqOeZP6ju-570">
          <mxGeometry width="210" height="130" as="geometry" />
        </mxCell>
        <mxCell id="0cCKj04-58CsqOeZP6ju-572" value="" style="group" vertex="1" connectable="0" parent="0cCKj04-58CsqOeZP6ju-571">
          <mxGeometry width="210" height="130" as="geometry" />
        </mxCell>
        <mxCell id="0cCKj04-58CsqOeZP6ju-573" value="" style="shape=ext;strokeWidth=2;margin=10;double=1;whiteSpace=wrap;html=1;align=center;fontSize=14;" vertex="1" parent="0cCKj04-58CsqOeZP6ju-572">
          <mxGeometry width="210" height="130" as="geometry" />
        </mxCell>
        <mxCell id="0cCKj04-58CsqOeZP6ju-574" value="  lead_actorID" style="shape=partialRectangle;top=0;left=0;right=0;bottom=1;align=left;verticalAlign=top;fillColor=none;spacingLeft=34;spacingRight=4;overflow=hidden;rotatable=0;points=[[0,0.5],[1,0.5]];portConstraint=eastwest;dropTarget=0;fontSize=12;strokeWidth=1;fontStyle=1" vertex="1" parent="0cCKj04-58CsqOeZP6ju-572">
          <mxGeometry x="15" y="15" width="179" height="28" as="geometry" />
        </mxCell>
        <mxCell id="0cCKj04-58CsqOeZP6ju-575" value="PK" style="shape=partialRectangle;top=0;left=0;bottom=0;fillColor=none;align=left;verticalAlign=top;spacingLeft=4;spacingRight=4;overflow=hidden;rotatable=0;points=[];portConstraint=eastwest;part=1;fontSize=12;fontStyle=1" vertex="1" connectable="0" parent="0cCKj04-58CsqOeZP6ju-574">
          <mxGeometry width="40" height="28" as="geometry" />
        </mxCell>
        <mxCell id="0cCKj04-58CsqOeZP6ju-576" value="" style="endArrow=none;dashed=1;html=1;" edge="1" parent="0cCKj04-58CsqOeZP6ju-572">
          <mxGeometry width="50" height="50" relative="1" as="geometry">
            <mxPoint x="59" y="34" as="sourcePoint" />
            <mxPoint x="136" y="34" as="targetPoint" />
          </mxGeometry>
        </mxCell>
        <mxCell id="0cCKj04-58CsqOeZP6ju-577" value="" style="shape=partialRectangle;collapsible=0;dropTarget=0;pointerEvents=0;fillColor=none;top=0;left=0;bottom=0;right=0;points=[[0,0.5],[1,0.5]];portConstraint=eastwest;" vertex="1" parent="0cCKj04-58CsqOeZP6ju-572">
          <mxGeometry x="30" y="54" width="140" height="30" as="geometry" />
        </mxCell>
        <mxCell id="0cCKj04-58CsqOeZP6ju-578" value="" style="shape=partialRectangle;connectable=0;fillColor=none;top=0;left=0;bottom=0;right=0;editable=1;overflow=hidden;" vertex="1" parent="0cCKj04-58CsqOeZP6ju-577">
          <mxGeometry width="23.333333333333332" height="30" as="geometry" />
        </mxCell>
        <mxCell id="0cCKj04-58CsqOeZP6ju-579" value="full_name" style="shape=partialRectangle;connectable=0;fillColor=none;top=0;left=0;bottom=0;right=0;align=left;spacingLeft=6;overflow=hidden;fontStyle=0;spacingTop=1;strokeWidth=1;" vertex="1" parent="0cCKj04-58CsqOeZP6ju-577">
          <mxGeometry x="23.333333333333332" width="116.66666666666666" height="30" as="geometry" />
        </mxCell>
        <mxCell id="0cCKj04-58CsqOeZP6ju-580" value="FK       native_name" style="text;strokeColor=none;fillColor=none;spacingLeft=4;spacingRight=4;overflow=hidden;rotatable=0;points=[[0,0.5],[1,0.5]];portConstraint=eastwest;fontSize=12;fontStyle=2" vertex="1" parent="0cCKj04-58CsqOeZP6ju-572">
          <mxGeometry x="18" y="84" width="136" height="26" as="geometry" />
        </mxCell>
        <mxCell id="0cCKj04-58CsqOeZP6ju-581" value="" style="endArrow=none;dashed=1;html=1;entryX=0.811;entryY=0.813;entryDx=0;entryDy=0;entryPerimeter=0;" edge="1" parent="0cCKj04-58CsqOeZP6ju-572" target="0cCKj04-58CsqOeZP6ju-580">
          <mxGeometry width="50" height="50" relative="1" as="geometry">
            <mxPoint x="57" y="104.5" as="sourcePoint" />
            <mxPoint x="115" y="104.5" as="targetPoint" />
            <Array as="points">
              <mxPoint x="143" y="105.5" />
            </Array>
          </mxGeometry>
        </mxCell>
        <mxCell id="0cCKj04-58CsqOeZP6ju-582" value="" style="endArrow=none;dashed=1;html=1;entryX=0.71;entryY=-0.312;entryDx=0;entryDy=0;entryPerimeter=0;" edge="1" parent="0cCKj04-58CsqOeZP6ju-572" target="0cCKj04-58CsqOeZP6ju-580">
          <mxGeometry width="50" height="50" relative="1" as="geometry">
            <mxPoint x="62" y="74.5" as="sourcePoint" />
            <mxPoint x="86" y="74.5" as="targetPoint" />
          </mxGeometry>
        </mxCell>
        <mxCell id="0cCKj04-58CsqOeZP6ju-583" value="" style="group" vertex="1" connectable="0" parent="1">
          <mxGeometry x="745" y="1027.5" width="210" height="130" as="geometry" />
        </mxCell>
        <mxCell id="0cCKj04-58CsqOeZP6ju-584" value="" style="group" vertex="1" connectable="0" parent="0cCKj04-58CsqOeZP6ju-583">
          <mxGeometry width="210" height="130" as="geometry" />
        </mxCell>
        <mxCell id="0cCKj04-58CsqOeZP6ju-585" value="" style="group" vertex="1" connectable="0" parent="0cCKj04-58CsqOeZP6ju-584">
          <mxGeometry width="210" height="130" as="geometry" />
        </mxCell>
        <mxCell id="0cCKj04-58CsqOeZP6ju-586" value="" style="shape=ext;strokeWidth=2;margin=10;double=1;whiteSpace=wrap;html=1;align=center;fontSize=14;" vertex="1" parent="0cCKj04-58CsqOeZP6ju-585">
          <mxGeometry width="210" height="130" as="geometry" />
        </mxCell>
        <mxCell id="0cCKj04-58CsqOeZP6ju-587" value="  lead_actressID" style="shape=partialRectangle;top=0;left=0;right=0;bottom=1;align=left;verticalAlign=top;fillColor=none;spacingLeft=34;spacingRight=4;overflow=hidden;rotatable=0;points=[[0,0.5],[1,0.5]];portConstraint=eastwest;dropTarget=0;fontSize=12;strokeWidth=1;fontStyle=1" vertex="1" parent="0cCKj04-58CsqOeZP6ju-585">
          <mxGeometry x="15" y="15" width="179" height="28" as="geometry" />
        </mxCell>
        <mxCell id="0cCKj04-58CsqOeZP6ju-588" value="PK" style="shape=partialRectangle;top=0;left=0;bottom=0;fillColor=none;align=left;verticalAlign=top;spacingLeft=4;spacingRight=4;overflow=hidden;rotatable=0;points=[];portConstraint=eastwest;part=1;fontSize=12;fontStyle=1" vertex="1" connectable="0" parent="0cCKj04-58CsqOeZP6ju-587">
          <mxGeometry width="40" height="28" as="geometry" />
        </mxCell>
        <mxCell id="0cCKj04-58CsqOeZP6ju-589" value="" style="endArrow=none;dashed=1;html=1;" edge="1" parent="0cCKj04-58CsqOeZP6ju-585">
          <mxGeometry width="50" height="50" relative="1" as="geometry">
            <mxPoint x="59" y="34" as="sourcePoint" />
            <mxPoint x="144" y="34" as="targetPoint" />
          </mxGeometry>
        </mxCell>
        <mxCell id="0cCKj04-58CsqOeZP6ju-590" value="" style="shape=partialRectangle;collapsible=0;dropTarget=0;pointerEvents=0;fillColor=none;top=0;left=0;bottom=0;right=0;points=[[0,0.5],[1,0.5]];portConstraint=eastwest;" vertex="1" parent="0cCKj04-58CsqOeZP6ju-585">
          <mxGeometry x="30" y="54" width="140" height="30" as="geometry" />
        </mxCell>
        <mxCell id="0cCKj04-58CsqOeZP6ju-591" value="" style="shape=partialRectangle;connectable=0;fillColor=none;top=0;left=0;bottom=0;right=0;editable=1;overflow=hidden;" vertex="1" parent="0cCKj04-58CsqOeZP6ju-590">
          <mxGeometry width="23.333333333333332" height="30" as="geometry" />
        </mxCell>
        <mxCell id="0cCKj04-58CsqOeZP6ju-592" value="full_name" style="shape=partialRectangle;connectable=0;fillColor=none;top=0;left=0;bottom=0;right=0;align=left;spacingLeft=6;overflow=hidden;fontStyle=0;spacingTop=1;strokeWidth=1;" vertex="1" parent="0cCKj04-58CsqOeZP6ju-590">
          <mxGeometry x="23.333333333333332" width="116.66666666666666" height="30" as="geometry" />
        </mxCell>
        <mxCell id="0cCKj04-58CsqOeZP6ju-593" value="FK       native_name" style="text;strokeColor=none;fillColor=none;spacingLeft=4;spacingRight=4;overflow=hidden;rotatable=0;points=[[0,0.5],[1,0.5]];portConstraint=eastwest;fontSize=12;fontStyle=2" vertex="1" parent="0cCKj04-58CsqOeZP6ju-585">
          <mxGeometry x="18" y="84" width="136" height="26" as="geometry" />
        </mxCell>
        <mxCell id="0cCKj04-58CsqOeZP6ju-594" value="" style="endArrow=none;dashed=1;html=1;entryX=0.811;entryY=0.813;entryDx=0;entryDy=0;entryPerimeter=0;" edge="1" parent="0cCKj04-58CsqOeZP6ju-585" target="0cCKj04-58CsqOeZP6ju-593">
          <mxGeometry width="50" height="50" relative="1" as="geometry">
            <mxPoint x="57" y="104.5" as="sourcePoint" />
            <mxPoint x="115" y="104.5" as="targetPoint" />
            <Array as="points">
              <mxPoint x="143" y="105.5" />
            </Array>
          </mxGeometry>
        </mxCell>
        <mxCell id="0cCKj04-58CsqOeZP6ju-595" value="" style="endArrow=none;dashed=1;html=1;entryX=0.71;entryY=-0.312;entryDx=0;entryDy=0;entryPerimeter=0;" edge="1" parent="0cCKj04-58CsqOeZP6ju-585" target="0cCKj04-58CsqOeZP6ju-593">
          <mxGeometry width="50" height="50" relative="1" as="geometry">
            <mxPoint x="62" y="74.5" as="sourcePoint" />
            <mxPoint x="86" y="74.5" as="targetPoint" />
          </mxGeometry>
        </mxCell>
        <mxCell id="0cCKj04-58CsqOeZP6ju-596" value="" style="group" vertex="1" connectable="0" parent="1">
          <mxGeometry x="254.5" y="1247" width="210" height="130" as="geometry" />
        </mxCell>
        <mxCell id="0cCKj04-58CsqOeZP6ju-597" value="" style="group" vertex="1" connectable="0" parent="0cCKj04-58CsqOeZP6ju-596">
          <mxGeometry width="210" height="130" as="geometry" />
        </mxCell>
        <mxCell id="0cCKj04-58CsqOeZP6ju-598" value="" style="group" vertex="1" connectable="0" parent="0cCKj04-58CsqOeZP6ju-597">
          <mxGeometry width="210" height="130" as="geometry" />
        </mxCell>
        <mxCell id="0cCKj04-58CsqOeZP6ju-599" value="" style="group" vertex="1" connectable="0" parent="0cCKj04-58CsqOeZP6ju-598">
          <mxGeometry width="210" height="130" as="geometry" />
        </mxCell>
        <mxCell id="0cCKj04-58CsqOeZP6ju-600" value="" style="shape=ext;strokeWidth=2;margin=10;double=1;whiteSpace=wrap;html=1;align=center;fontSize=14;" vertex="1" parent="0cCKj04-58CsqOeZP6ju-599">
          <mxGeometry width="210" height="130" as="geometry" />
        </mxCell>
        <mxCell id="0cCKj04-58CsqOeZP6ju-601" value="  photoID" style="shape=partialRectangle;top=0;left=0;right=0;bottom=1;align=left;verticalAlign=top;fillColor=none;spacingLeft=34;spacingRight=4;overflow=hidden;rotatable=0;points=[[0,0.5],[1,0.5]];portConstraint=eastwest;dropTarget=0;fontSize=12;strokeWidth=1;fontStyle=1" vertex="1" parent="0cCKj04-58CsqOeZP6ju-599">
          <mxGeometry x="15" y="15" width="179" height="28" as="geometry" />
        </mxCell>
        <mxCell id="0cCKj04-58CsqOeZP6ju-602" value="PK" style="shape=partialRectangle;top=0;left=0;bottom=0;fillColor=none;align=left;verticalAlign=top;spacingLeft=4;spacingRight=4;overflow=hidden;rotatable=0;points=[];portConstraint=eastwest;part=1;fontSize=12;fontStyle=1" vertex="1" connectable="0" parent="0cCKj04-58CsqOeZP6ju-601">
          <mxGeometry width="40" height="28" as="geometry" />
        </mxCell>
        <mxCell id="0cCKj04-58CsqOeZP6ju-603" value="" style="endArrow=none;dashed=1;html=1;" edge="1" parent="0cCKj04-58CsqOeZP6ju-599">
          <mxGeometry width="50" height="50" relative="1" as="geometry">
            <mxPoint x="59" y="34" as="sourcePoint" />
            <mxPoint x="113" y="34.5" as="targetPoint" />
          </mxGeometry>
        </mxCell>
        <mxCell id="0cCKj04-58CsqOeZP6ju-604" value="" style="shape=partialRectangle;collapsible=0;dropTarget=0;pointerEvents=0;fillColor=none;top=0;left=0;bottom=0;right=0;points=[[0,0.5],[1,0.5]];portConstraint=eastwest;" vertex="1" parent="0cCKj04-58CsqOeZP6ju-599">
          <mxGeometry x="30" y="54" width="140" height="30" as="geometry" />
        </mxCell>
        <mxCell id="0cCKj04-58CsqOeZP6ju-605" value="" style="shape=partialRectangle;connectable=0;fillColor=none;top=0;left=0;bottom=0;right=0;editable=1;overflow=hidden;" vertex="1" parent="0cCKj04-58CsqOeZP6ju-604">
          <mxGeometry width="23.333333333333332" height="30" as="geometry" />
        </mxCell>
        <mxCell id="0cCKj04-58CsqOeZP6ju-606" value="photo" style="shape=partialRectangle;connectable=0;fillColor=none;top=0;left=0;bottom=0;right=0;align=left;spacingLeft=6;overflow=hidden;fontStyle=0;spacingTop=1;strokeWidth=1;" vertex="1" parent="0cCKj04-58CsqOeZP6ju-604">
          <mxGeometry x="23.333333333333332" width="116.66666666666666" height="30" as="geometry" />
        </mxCell>
        <mxCell id="0cCKj04-58CsqOeZP6ju-607" value="FK       native_name" style="text;strokeColor=none;fillColor=none;spacingLeft=4;spacingRight=4;overflow=hidden;rotatable=0;points=[[0,0.5],[1,0.5]];portConstraint=eastwest;fontSize=12;fontStyle=2" vertex="1" parent="0cCKj04-58CsqOeZP6ju-599">
          <mxGeometry x="18" y="84" width="136" height="26" as="geometry" />
        </mxCell>
        <mxCell id="0cCKj04-58CsqOeZP6ju-608" value="" style="endArrow=none;dashed=1;html=1;entryX=0.811;entryY=0.813;entryDx=0;entryDy=0;entryPerimeter=0;" edge="1" parent="0cCKj04-58CsqOeZP6ju-599" target="0cCKj04-58CsqOeZP6ju-607">
          <mxGeometry width="50" height="50" relative="1" as="geometry">
            <mxPoint x="57" y="104.5" as="sourcePoint" />
            <mxPoint x="115" y="104.5" as="targetPoint" />
            <Array as="points">
              <mxPoint x="143" y="105.5" />
            </Array>
          </mxGeometry>
        </mxCell>
        <mxCell id="0cCKj04-58CsqOeZP6ju-609" value="" style="endArrow=none;dashed=1;html=1;" edge="1" parent="0cCKj04-58CsqOeZP6ju-599">
          <mxGeometry width="50" height="50" relative="1" as="geometry">
            <mxPoint x="62" y="74.5" as="sourcePoint" />
            <mxPoint x="96" y="76" as="targetPoint" />
          </mxGeometry>
        </mxCell>
        <mxCell id="0cCKj04-58CsqOeZP6ju-610" value="" style="group" vertex="1" connectable="0" parent="1">
          <mxGeometry x="468.5" y="1215" width="210" height="130" as="geometry" />
        </mxCell>
        <mxCell id="0cCKj04-58CsqOeZP6ju-611" value="" style="group" vertex="1" connectable="0" parent="0cCKj04-58CsqOeZP6ju-610">
          <mxGeometry width="210" height="130" as="geometry" />
        </mxCell>
        <mxCell id="0cCKj04-58CsqOeZP6ju-612" value="" style="group" vertex="1" connectable="0" parent="0cCKj04-58CsqOeZP6ju-611">
          <mxGeometry width="210" height="130" as="geometry" />
        </mxCell>
        <mxCell id="0cCKj04-58CsqOeZP6ju-613" value="" style="group" vertex="1" connectable="0" parent="0cCKj04-58CsqOeZP6ju-612">
          <mxGeometry width="210" height="130" as="geometry" />
        </mxCell>
        <mxCell id="0cCKj04-58CsqOeZP6ju-614" value="" style="shape=ext;strokeWidth=2;margin=10;double=1;whiteSpace=wrap;html=1;align=center;fontSize=14;" vertex="1" parent="0cCKj04-58CsqOeZP6ju-613">
          <mxGeometry width="210" height="130" as="geometry" />
        </mxCell>
        <mxCell id="0cCKj04-58CsqOeZP6ju-615" value="  posterID" style="shape=partialRectangle;top=0;left=0;right=0;bottom=1;align=left;verticalAlign=top;fillColor=none;spacingLeft=34;spacingRight=4;overflow=hidden;rotatable=0;points=[[0,0.5],[1,0.5]];portConstraint=eastwest;dropTarget=0;fontSize=12;strokeWidth=1;fontStyle=1" vertex="1" parent="0cCKj04-58CsqOeZP6ju-613">
          <mxGeometry x="15" y="15" width="179" height="28" as="geometry" />
        </mxCell>
        <mxCell id="0cCKj04-58CsqOeZP6ju-616" value="PK" style="shape=partialRectangle;top=0;left=0;bottom=0;fillColor=none;align=left;verticalAlign=top;spacingLeft=4;spacingRight=4;overflow=hidden;rotatable=0;points=[];portConstraint=eastwest;part=1;fontSize=12;fontStyle=1" vertex="1" connectable="0" parent="0cCKj04-58CsqOeZP6ju-615">
          <mxGeometry width="40" height="28" as="geometry" />
        </mxCell>
        <mxCell id="0cCKj04-58CsqOeZP6ju-617" value="" style="endArrow=none;dashed=1;html=1;" edge="1" parent="0cCKj04-58CsqOeZP6ju-613">
          <mxGeometry width="50" height="50" relative="1" as="geometry">
            <mxPoint x="59" y="34" as="sourcePoint" />
            <mxPoint x="113" y="34.5" as="targetPoint" />
          </mxGeometry>
        </mxCell>
        <mxCell id="0cCKj04-58CsqOeZP6ju-618" value="" style="shape=partialRectangle;collapsible=0;dropTarget=0;pointerEvents=0;fillColor=none;top=0;left=0;bottom=0;right=0;points=[[0,0.5],[1,0.5]];portConstraint=eastwest;" vertex="1" parent="0cCKj04-58CsqOeZP6ju-613">
          <mxGeometry x="30" y="54" width="140" height="30" as="geometry" />
        </mxCell>
        <mxCell id="0cCKj04-58CsqOeZP6ju-619" value="" style="shape=partialRectangle;connectable=0;fillColor=none;top=0;left=0;bottom=0;right=0;editable=1;overflow=hidden;" vertex="1" parent="0cCKj04-58CsqOeZP6ju-618">
          <mxGeometry width="23.333333333333332" height="30" as="geometry" />
        </mxCell>
        <mxCell id="0cCKj04-58CsqOeZP6ju-620" value="poster" style="shape=partialRectangle;connectable=0;fillColor=none;top=0;left=0;bottom=0;right=0;align=left;spacingLeft=6;overflow=hidden;fontStyle=0;spacingTop=1;strokeWidth=1;" vertex="1" parent="0cCKj04-58CsqOeZP6ju-618">
          <mxGeometry x="23.333333333333332" width="116.66666666666666" height="30" as="geometry" />
        </mxCell>
        <mxCell id="0cCKj04-58CsqOeZP6ju-621" value="FK       native_name" style="text;strokeColor=none;fillColor=none;spacingLeft=4;spacingRight=4;overflow=hidden;rotatable=0;points=[[0,0.5],[1,0.5]];portConstraint=eastwest;fontSize=12;fontStyle=2" vertex="1" parent="0cCKj04-58CsqOeZP6ju-613">
          <mxGeometry x="18" y="84" width="136" height="26" as="geometry" />
        </mxCell>
        <mxCell id="0cCKj04-58CsqOeZP6ju-622" value="" style="endArrow=none;dashed=1;html=1;entryX=0.811;entryY=0.813;entryDx=0;entryDy=0;entryPerimeter=0;" edge="1" parent="0cCKj04-58CsqOeZP6ju-613" target="0cCKj04-58CsqOeZP6ju-621">
          <mxGeometry width="50" height="50" relative="1" as="geometry">
            <mxPoint x="57" y="104.5" as="sourcePoint" />
            <mxPoint x="115" y="104.5" as="targetPoint" />
            <Array as="points">
              <mxPoint x="143" y="105.5" />
            </Array>
          </mxGeometry>
        </mxCell>
        <mxCell id="0cCKj04-58CsqOeZP6ju-623" value="" style="endArrow=none;dashed=1;html=1;" edge="1" parent="0cCKj04-58CsqOeZP6ju-613">
          <mxGeometry width="50" height="50" relative="1" as="geometry">
            <mxPoint x="62" y="74.5" as="sourcePoint" />
            <mxPoint x="96" y="76" as="targetPoint" />
          </mxGeometry>
        </mxCell>
        <mxCell id="0cCKj04-58CsqOeZP6ju-324" value="" style="shape=table;startSize=30;container=1;collapsible=1;childLayout=tableLayout;fixedRows=1;rowLines=0;fontStyle=1;align=center;resizeLast=1;" vertex="1" parent="1">
          <mxGeometry x="-99.5" y="897" width="180" height="93" as="geometry" />
        </mxCell>
        <mxCell id="0cCKj04-58CsqOeZP6ju-325" value="" style="shape=partialRectangle;collapsible=0;dropTarget=0;pointerEvents=0;fillColor=none;top=0;left=0;bottom=1;right=0;points=[[0,0.5],[1,0.5]];portConstraint=eastwest;" vertex="1" parent="0cCKj04-58CsqOeZP6ju-324">
          <mxGeometry y="30" width="180" height="30" as="geometry" />
        </mxCell>
        <mxCell id="0cCKj04-58CsqOeZP6ju-326" value="PK" style="shape=partialRectangle;connectable=0;fillColor=none;top=0;left=0;bottom=0;right=0;fontStyle=1;overflow=hidden;" vertex="1" parent="0cCKj04-58CsqOeZP6ju-325">
          <mxGeometry width="30" height="30" as="geometry" />
        </mxCell>
        <mxCell id="0cCKj04-58CsqOeZP6ju-327" value="yearID" style="shape=partialRectangle;connectable=0;fillColor=none;top=0;left=0;bottom=0;right=0;align=left;spacingLeft=6;fontStyle=5;overflow=hidden;" vertex="1" parent="0cCKj04-58CsqOeZP6ju-325">
          <mxGeometry x="30" width="150" height="30" as="geometry" />
        </mxCell>
        <mxCell id="0cCKj04-58CsqOeZP6ju-328" value="year" style="text;html=1;strokeColor=none;fillColor=none;align=center;verticalAlign=middle;whiteSpace=wrap;rounded=0;" vertex="1" parent="0cCKj04-58CsqOeZP6ju-324">
          <mxGeometry y="60" width="180" height="20" as="geometry" />
        </mxCell>
        <mxCell id="0cCKj04-58CsqOeZP6ju-329" value="" style="shape=table;startSize=30;container=1;collapsible=1;childLayout=tableLayout;fixedRows=1;rowLines=0;fontStyle=1;align=center;resizeLast=1;" vertex="1" parent="1">
          <mxGeometry x="-530" y="302.5" width="180" height="130" as="geometry" />
        </mxCell>
        <mxCell id="0cCKj04-58CsqOeZP6ju-330" value="" style="shape=partialRectangle;collapsible=0;dropTarget=0;pointerEvents=0;fillColor=none;top=0;left=0;bottom=1;right=0;points=[[0,0.5],[1,0.5]];portConstraint=eastwest;" vertex="1" parent="0cCKj04-58CsqOeZP6ju-329">
          <mxGeometry y="30" width="180" height="30" as="geometry" />
        </mxCell>
        <mxCell id="0cCKj04-58CsqOeZP6ju-331" value="PK" style="shape=partialRectangle;connectable=0;fillColor=none;top=0;left=0;bottom=0;right=0;fontStyle=1;overflow=hidden;" vertex="1" parent="0cCKj04-58CsqOeZP6ju-330">
          <mxGeometry width="30" height="30" as="geometry" />
        </mxCell>
        <mxCell id="0cCKj04-58CsqOeZP6ju-332" value="bandID" style="shape=partialRectangle;connectable=0;fillColor=none;top=0;left=0;bottom=0;right=0;align=left;spacingLeft=6;fontStyle=5;overflow=hidden;" vertex="1" parent="0cCKj04-58CsqOeZP6ju-330">
          <mxGeometry x="30" width="150" height="30" as="geometry" />
        </mxCell>
        <mxCell id="0cCKj04-58CsqOeZP6ju-333" value="" style="shape=partialRectangle;collapsible=0;dropTarget=0;pointerEvents=0;fillColor=none;top=0;left=0;bottom=0;right=0;points=[[0,0.5],[1,0.5]];portConstraint=eastwest;" vertex="1" parent="0cCKj04-58CsqOeZP6ju-329">
          <mxGeometry y="60" width="180" height="30" as="geometry" />
        </mxCell>
        <mxCell id="0cCKj04-58CsqOeZP6ju-334" value="" style="shape=partialRectangle;connectable=0;fillColor=none;top=0;left=0;bottom=0;right=0;editable=1;overflow=hidden;" vertex="1" parent="0cCKj04-58CsqOeZP6ju-333">
          <mxGeometry width="30" height="30" as="geometry" />
        </mxCell>
        <mxCell id="0cCKj04-58CsqOeZP6ju-335" value="band_name" style="shape=partialRectangle;connectable=0;fillColor=none;top=0;left=0;bottom=0;right=0;align=left;spacingLeft=6;overflow=hidden;" vertex="1" parent="0cCKj04-58CsqOeZP6ju-333">
          <mxGeometry x="30" width="150" height="30" as="geometry" />
        </mxCell>
        <mxCell id="0cCKj04-58CsqOeZP6ju-336" value="" style="shape=partialRectangle;collapsible=0;dropTarget=0;pointerEvents=0;fillColor=none;top=0;left=0;bottom=0;right=0;points=[[0,0.5],[1,0.5]];portConstraint=eastwest;" vertex="1" parent="0cCKj04-58CsqOeZP6ju-329">
          <mxGeometry y="90" width="180" height="30" as="geometry" />
        </mxCell>
        <mxCell id="0cCKj04-58CsqOeZP6ju-337" value="FK" style="shape=partialRectangle;connectable=0;fillColor=none;top=0;left=0;bottom=0;right=0;editable=1;overflow=hidden;" vertex="1" parent="0cCKj04-58CsqOeZP6ju-336">
          <mxGeometry width="30" height="30" as="geometry" />
        </mxCell>
        <mxCell id="0cCKj04-58CsqOeZP6ju-338" value="singerID" style="shape=partialRectangle;connectable=0;fillColor=none;top=0;left=0;bottom=0;right=0;align=left;spacingLeft=6;overflow=hidden;fontStyle=2" vertex="1" parent="0cCKj04-58CsqOeZP6ju-336">
          <mxGeometry x="30" width="150" height="30" as="geometry" />
        </mxCell>
        <mxCell id="0cCKj04-58CsqOeZP6ju-339" value="" style="shape=table;startSize=30;container=1;collapsible=1;childLayout=tableLayout;fixedRows=1;rowLines=0;fontStyle=1;align=center;resizeLast=1;" vertex="1" parent="1">
          <mxGeometry x="305.5" y="654.5" width="180" height="140" as="geometry" />
        </mxCell>
        <mxCell id="0cCKj04-58CsqOeZP6ju-340" value="" style="shape=partialRectangle;collapsible=0;dropTarget=0;pointerEvents=0;fillColor=none;top=0;left=0;bottom=0;right=0;points=[[0,0.5],[1,0.5]];portConstraint=eastwest;" vertex="1" parent="0cCKj04-58CsqOeZP6ju-339">
          <mxGeometry y="30" width="180" height="30" as="geometry" />
        </mxCell>
        <mxCell id="0cCKj04-58CsqOeZP6ju-341" value="" style="shape=partialRectangle;connectable=0;fillColor=none;top=0;left=0;bottom=0;right=0;editable=1;overflow=hidden;" vertex="1" parent="0cCKj04-58CsqOeZP6ju-340">
          <mxGeometry width="30" height="30" as="geometry" />
        </mxCell>
        <mxCell id="0cCKj04-58CsqOeZP6ju-342" value="country" style="shape=partialRectangle;connectable=0;fillColor=none;top=0;left=0;bottom=0;right=0;align=left;spacingLeft=6;overflow=hidden;" vertex="1" parent="0cCKj04-58CsqOeZP6ju-340">
          <mxGeometry x="30" width="150" height="30" as="geometry" />
        </mxCell>
        <mxCell id="0cCKj04-58CsqOeZP6ju-343" value="" style="shape=partialRectangle;collapsible=0;dropTarget=0;pointerEvents=0;fillColor=none;top=0;left=0;bottom=0;right=0;points=[[0,0.5],[1,0.5]];portConstraint=eastwest;" vertex="1" parent="0cCKj04-58CsqOeZP6ju-339">
          <mxGeometry y="60" width="180" height="30" as="geometry" />
        </mxCell>
        <mxCell id="0cCKj04-58CsqOeZP6ju-344" value="FK" style="shape=partialRectangle;connectable=0;fillColor=none;top=0;left=0;bottom=0;right=0;editable=1;overflow=hidden;" vertex="1" parent="0cCKj04-58CsqOeZP6ju-343">
          <mxGeometry width="30" height="30" as="geometry" />
        </mxCell>
        <mxCell id="0cCKj04-58CsqOeZP6ju-345" value="native_name" style="shape=partialRectangle;connectable=0;fillColor=none;top=0;left=0;bottom=0;right=0;align=left;spacingLeft=6;overflow=hidden;fontStyle=2" vertex="1" parent="0cCKj04-58CsqOeZP6ju-343">
          <mxGeometry x="30" width="150" height="30" as="geometry" />
        </mxCell>
        <mxCell id="0cCKj04-58CsqOeZP6ju-346" value="" style="shape=partialRectangle;collapsible=0;dropTarget=0;pointerEvents=0;fillColor=none;top=0;left=0;bottom=1;right=0;points=[[0,0.5],[1,0.5]];portConstraint=eastwest;" vertex="1" parent="0cCKj04-58CsqOeZP6ju-339">
          <mxGeometry y="90" width="180" height="30" as="geometry" />
        </mxCell>
        <mxCell id="0cCKj04-58CsqOeZP6ju-347" value="PK" style="shape=partialRectangle;connectable=0;fillColor=none;top=0;left=0;bottom=0;right=0;fontStyle=1;overflow=hidden;" vertex="1" parent="0cCKj04-58CsqOeZP6ju-346">
          <mxGeometry width="30" height="30" as="geometry" />
        </mxCell>
        <mxCell id="0cCKj04-58CsqOeZP6ju-348" value="countryID" style="shape=partialRectangle;connectable=0;fillColor=none;top=0;left=0;bottom=0;right=0;align=left;spacingLeft=6;fontStyle=5;overflow=hidden;" vertex="1" parent="0cCKj04-58CsqOeZP6ju-346">
          <mxGeometry x="30" width="150" height="30" as="geometry" />
        </mxCell>
        <mxCell id="0cCKj04-58CsqOeZP6ju-349" value="" style="shape=table;startSize=30;container=1;collapsible=1;childLayout=tableLayout;fixedRows=1;rowLines=0;fontStyle=1;align=center;resizeLast=1;" vertex="1" parent="1">
          <mxGeometry x="-159.5" y="517" width="180" height="130" as="geometry" />
        </mxCell>
        <mxCell id="0cCKj04-58CsqOeZP6ju-350" value="" style="shape=partialRectangle;collapsible=0;dropTarget=0;pointerEvents=0;fillColor=none;top=0;left=0;bottom=1;right=0;points=[[0,0.5],[1,0.5]];portConstraint=eastwest;" vertex="1" parent="0cCKj04-58CsqOeZP6ju-349">
          <mxGeometry y="30" width="180" height="30" as="geometry" />
        </mxCell>
        <mxCell id="0cCKj04-58CsqOeZP6ju-351" value="PK" style="shape=partialRectangle;connectable=0;fillColor=none;top=0;left=0;bottom=0;right=0;fontStyle=1;overflow=hidden;" vertex="1" parent="0cCKj04-58CsqOeZP6ju-350">
          <mxGeometry width="30" height="30" as="geometry" />
        </mxCell>
        <mxCell id="0cCKj04-58CsqOeZP6ju-352" value="lyricistID" style="shape=partialRectangle;connectable=0;fillColor=none;top=0;left=0;bottom=0;right=0;align=left;spacingLeft=6;fontStyle=5;overflow=hidden;" vertex="1" parent="0cCKj04-58CsqOeZP6ju-350">
          <mxGeometry x="30" width="150" height="30" as="geometry" />
        </mxCell>
        <mxCell id="0cCKj04-58CsqOeZP6ju-353" value="" style="shape=partialRectangle;collapsible=0;dropTarget=0;pointerEvents=0;fillColor=none;top=0;left=0;bottom=0;right=0;points=[[0,0.5],[1,0.5]];portConstraint=eastwest;" vertex="1" parent="0cCKj04-58CsqOeZP6ju-349">
          <mxGeometry y="60" width="180" height="30" as="geometry" />
        </mxCell>
        <mxCell id="0cCKj04-58CsqOeZP6ju-354" value="" style="shape=partialRectangle;connectable=0;fillColor=none;top=0;left=0;bottom=0;right=0;editable=1;overflow=hidden;" vertex="1" parent="0cCKj04-58CsqOeZP6ju-353">
          <mxGeometry width="30" height="30" as="geometry" />
        </mxCell>
        <mxCell id="0cCKj04-58CsqOeZP6ju-355" value="full_name" style="shape=partialRectangle;connectable=0;fillColor=none;top=0;left=0;bottom=0;right=0;align=left;spacingLeft=6;overflow=hidden;" vertex="1" parent="0cCKj04-58CsqOeZP6ju-353">
          <mxGeometry x="30" width="150" height="30" as="geometry" />
        </mxCell>
        <mxCell id="0cCKj04-58CsqOeZP6ju-356" value="" style="shape=partialRectangle;collapsible=0;dropTarget=0;pointerEvents=0;fillColor=none;top=0;left=0;bottom=0;right=0;points=[[0,0.5],[1,0.5]];portConstraint=eastwest;" vertex="1" parent="0cCKj04-58CsqOeZP6ju-349">
          <mxGeometry y="90" width="180" height="30" as="geometry" />
        </mxCell>
        <mxCell id="0cCKj04-58CsqOeZP6ju-357" value="" style="shape=partialRectangle;connectable=0;fillColor=none;top=0;left=0;bottom=0;right=0;editable=1;overflow=hidden;" vertex="1" parent="0cCKj04-58CsqOeZP6ju-356">
          <mxGeometry width="30" height="30" as="geometry" />
        </mxCell>
        <mxCell id="0cCKj04-58CsqOeZP6ju-358" value="songID" style="shape=partialRectangle;connectable=0;fillColor=none;top=0;left=0;bottom=0;right=0;align=left;spacingLeft=6;overflow=hidden;" vertex="1" parent="0cCKj04-58CsqOeZP6ju-356">
          <mxGeometry x="30" width="150" height="30" as="geometry" />
        </mxCell>
        <mxCell id="0cCKj04-58CsqOeZP6ju-359" value="" style="shape=table;startSize=30;container=1;collapsible=1;childLayout=tableLayout;fixedRows=1;rowLines=0;fontStyle=1;align=center;resizeLast=1;" vertex="1" parent="1">
          <mxGeometry x="320" y="897" width="180" height="188" as="geometry" />
        </mxCell>
        <mxCell id="0cCKj04-58CsqOeZP6ju-360" value="" style="shape=partialRectangle;collapsible=0;dropTarget=0;pointerEvents=0;fillColor=none;top=0;left=0;bottom=1;right=0;points=[[0,0.5],[1,0.5]];portConstraint=eastwest;" vertex="1" parent="0cCKj04-58CsqOeZP6ju-359">
          <mxGeometry y="30" width="180" height="30" as="geometry" />
        </mxCell>
        <mxCell id="0cCKj04-58CsqOeZP6ju-361" value="PK" style="shape=partialRectangle;connectable=0;fillColor=none;top=0;left=0;bottom=0;right=0;fontStyle=1;overflow=hidden;" vertex="1" parent="0cCKj04-58CsqOeZP6ju-360">
          <mxGeometry width="30" height="30" as="geometry" />
        </mxCell>
        <mxCell id="0cCKj04-58CsqOeZP6ju-362" value="movieID" style="shape=partialRectangle;connectable=0;fillColor=none;top=0;left=0;bottom=0;right=0;align=left;spacingLeft=6;fontStyle=5;overflow=hidden;" vertex="1" parent="0cCKj04-58CsqOeZP6ju-360">
          <mxGeometry x="30" width="150" height="30" as="geometry" />
        </mxCell>
        <mxCell id="0cCKj04-58CsqOeZP6ju-363" value="" style="shape=partialRectangle;collapsible=0;dropTarget=0;pointerEvents=0;fillColor=none;top=0;left=0;bottom=0;right=0;points=[[0,0.5],[1,0.5]];portConstraint=eastwest;" vertex="1" parent="0cCKj04-58CsqOeZP6ju-359">
          <mxGeometry y="60" width="180" height="30" as="geometry" />
        </mxCell>
        <mxCell id="0cCKj04-58CsqOeZP6ju-364" value="PK" style="shape=partialRectangle;connectable=0;fillColor=none;top=0;left=0;bottom=0;right=0;editable=1;overflow=hidden;fontStyle=1" vertex="1" parent="0cCKj04-58CsqOeZP6ju-363">
          <mxGeometry width="30" height="30" as="geometry" />
        </mxCell>
        <mxCell id="0cCKj04-58CsqOeZP6ju-365" value="native_name" style="shape=partialRectangle;connectable=0;fillColor=none;top=0;left=0;bottom=0;right=0;align=left;spacingLeft=6;overflow=hidden;fontStyle=5" vertex="1" parent="0cCKj04-58CsqOeZP6ju-363">
          <mxGeometry x="30" width="150" height="30" as="geometry" />
        </mxCell>
        <mxCell id="0cCKj04-58CsqOeZP6ju-366" value="" style="shape=partialRectangle;collapsible=0;dropTarget=0;pointerEvents=0;fillColor=none;top=0;left=0;bottom=0;right=0;points=[[0,0.5],[1,0.5]];portConstraint=eastwest;" vertex="1" parent="0cCKj04-58CsqOeZP6ju-359">
          <mxGeometry y="90" width="180" height="30" as="geometry" />
        </mxCell>
        <mxCell id="0cCKj04-58CsqOeZP6ju-367" value="" style="shape=partialRectangle;connectable=0;fillColor=none;top=0;left=0;bottom=0;right=0;editable=1;overflow=hidden;" vertex="1" parent="0cCKj04-58CsqOeZP6ju-366">
          <mxGeometry width="30" height="30" as="geometry" />
        </mxCell>
        <mxCell id="0cCKj04-58CsqOeZP6ju-368" value="english_name" style="shape=partialRectangle;connectable=0;fillColor=none;top=0;left=0;bottom=0;right=0;align=left;spacingLeft=6;overflow=hidden;" vertex="1" parent="0cCKj04-58CsqOeZP6ju-366">
          <mxGeometry x="30" width="150" height="30" as="geometry" />
        </mxCell>
        <mxCell id="0cCKj04-58CsqOeZP6ju-369" value="" style="shape=partialRectangle;collapsible=0;dropTarget=0;pointerEvents=0;fillColor=none;top=0;left=0;bottom=0;right=0;points=[[0,0.5],[1,0.5]];portConstraint=eastwest;" vertex="1" parent="0cCKj04-58CsqOeZP6ju-359">
          <mxGeometry y="120" width="180" height="30" as="geometry" />
        </mxCell>
        <mxCell id="0cCKj04-58CsqOeZP6ju-370" value="" style="shape=partialRectangle;connectable=0;fillColor=none;top=0;left=0;bottom=0;right=0;editable=1;overflow=hidden;" vertex="1" parent="0cCKj04-58CsqOeZP6ju-369">
          <mxGeometry width="30" height="30" as="geometry" />
        </mxCell>
        <mxCell id="0cCKj04-58CsqOeZP6ju-371" value="plot" style="shape=partialRectangle;connectable=0;fillColor=none;top=0;left=0;bottom=0;right=0;align=left;spacingLeft=6;overflow=hidden;" vertex="1" parent="0cCKj04-58CsqOeZP6ju-369">
          <mxGeometry x="30" width="150" height="30" as="geometry" />
        </mxCell>
        <mxCell id="0cCKj04-58CsqOeZP6ju-372" value="" style="shape=table;startSize=30;container=1;collapsible=1;childLayout=tableLayout;fixedRows=1;rowLines=0;fontStyle=1;align=center;resizeLast=1;" vertex="1" parent="1">
          <mxGeometry x="-99.5" y="357.5" width="180" height="135" as="geometry" />
        </mxCell>
        <mxCell id="0cCKj04-58CsqOeZP6ju-373" value="" style="shape=partialRectangle;collapsible=0;dropTarget=0;pointerEvents=0;fillColor=none;top=0;left=0;bottom=1;right=0;points=[[0,0.5],[1,0.5]];portConstraint=eastwest;" vertex="1" parent="0cCKj04-58CsqOeZP6ju-372">
          <mxGeometry y="30" width="180" height="30" as="geometry" />
        </mxCell>
        <mxCell id="0cCKj04-58CsqOeZP6ju-374" value="PK" style="shape=partialRectangle;connectable=0;fillColor=none;top=0;left=0;bottom=0;right=0;fontStyle=1;overflow=hidden;" vertex="1" parent="0cCKj04-58CsqOeZP6ju-373">
          <mxGeometry width="30" height="30" as="geometry" />
        </mxCell>
        <mxCell id="0cCKj04-58CsqOeZP6ju-375" value="singerID" style="shape=partialRectangle;connectable=0;fillColor=none;top=0;left=0;bottom=0;right=0;align=left;spacingLeft=6;fontStyle=5;overflow=hidden;" vertex="1" parent="0cCKj04-58CsqOeZP6ju-373">
          <mxGeometry x="30" width="150" height="30" as="geometry" />
        </mxCell>
        <mxCell id="0cCKj04-58CsqOeZP6ju-376" value="" style="shape=partialRectangle;collapsible=0;dropTarget=0;pointerEvents=0;fillColor=none;top=0;left=0;bottom=0;right=0;points=[[0,0.5],[1,0.5]];portConstraint=eastwest;" vertex="1" parent="0cCKj04-58CsqOeZP6ju-372">
          <mxGeometry y="60" width="180" height="30" as="geometry" />
        </mxCell>
        <mxCell id="0cCKj04-58CsqOeZP6ju-377" value="" style="shape=partialRectangle;connectable=0;fillColor=none;top=0;left=0;bottom=0;right=0;editable=1;overflow=hidden;" vertex="1" parent="0cCKj04-58CsqOeZP6ju-376">
          <mxGeometry width="30" height="30" as="geometry" />
        </mxCell>
        <mxCell id="0cCKj04-58CsqOeZP6ju-378" value="full_name" style="shape=partialRectangle;connectable=0;fillColor=none;top=0;left=0;bottom=0;right=0;align=left;spacingLeft=6;overflow=hidden;" vertex="1" parent="0cCKj04-58CsqOeZP6ju-376">
          <mxGeometry x="30" width="150" height="30" as="geometry" />
        </mxCell>
        <mxCell id="0cCKj04-58CsqOeZP6ju-379" value="" style="shape=partialRectangle;collapsible=0;dropTarget=0;pointerEvents=0;fillColor=none;top=0;left=0;bottom=0;right=0;points=[[0,0.5],[1,0.5]];portConstraint=eastwest;" vertex="1" parent="0cCKj04-58CsqOeZP6ju-372">
          <mxGeometry y="90" width="180" height="30" as="geometry" />
        </mxCell>
        <mxCell id="0cCKj04-58CsqOeZP6ju-380" value="FK" style="shape=partialRectangle;connectable=0;fillColor=none;top=0;left=0;bottom=0;right=0;editable=1;overflow=hidden;" vertex="1" parent="0cCKj04-58CsqOeZP6ju-379">
          <mxGeometry width="30" height="30" as="geometry" />
        </mxCell>
        <mxCell id="0cCKj04-58CsqOeZP6ju-381" value="native_name" style="shape=partialRectangle;connectable=0;fillColor=none;top=0;left=0;bottom=0;right=0;align=left;spacingLeft=6;overflow=hidden;fontStyle=2" vertex="1" parent="0cCKj04-58CsqOeZP6ju-379">
          <mxGeometry x="30" width="150" height="30" as="geometry" />
        </mxCell>
        <mxCell id="0cCKj04-58CsqOeZP6ju-382" value="" style="shape=table;startSize=20;container=1;collapsible=1;childLayout=tableLayout;fixedRows=1;rowLines=0;fontStyle=1;align=center;resizeLast=1;" vertex="1" parent="1">
          <mxGeometry x="-539.5" y="527.5" width="180" height="145" as="geometry" />
        </mxCell>
        <mxCell id="0cCKj04-58CsqOeZP6ju-383" value="" style="shape=partialRectangle;collapsible=0;dropTarget=0;pointerEvents=0;fillColor=none;top=0;left=0;bottom=1;right=0;points=[[0,0.5],[1,0.5]];portConstraint=eastwest;" vertex="1" parent="0cCKj04-58CsqOeZP6ju-382">
          <mxGeometry y="20" width="180" height="30" as="geometry" />
        </mxCell>
        <mxCell id="0cCKj04-58CsqOeZP6ju-384" value="PK" style="shape=partialRectangle;connectable=0;fillColor=none;top=0;left=0;bottom=0;right=0;fontStyle=1;overflow=hidden;" vertex="1" parent="0cCKj04-58CsqOeZP6ju-383">
          <mxGeometry width="30" height="30" as="geometry" />
        </mxCell>
        <mxCell id="0cCKj04-58CsqOeZP6ju-385" value="songID" style="shape=partialRectangle;connectable=0;fillColor=none;top=0;left=0;bottom=0;right=0;align=left;spacingLeft=6;fontStyle=5;overflow=hidden;" vertex="1" parent="0cCKj04-58CsqOeZP6ju-383">
          <mxGeometry x="30" width="150" height="30" as="geometry" />
        </mxCell>
        <mxCell id="0cCKj04-58CsqOeZP6ju-386" value="" style="shape=partialRectangle;collapsible=0;dropTarget=0;pointerEvents=0;fillColor=none;top=0;left=0;bottom=0;right=0;points=[[0,0.5],[1,0.5]];portConstraint=eastwest;" vertex="1" parent="0cCKj04-58CsqOeZP6ju-382">
          <mxGeometry y="50" width="180" height="30" as="geometry" />
        </mxCell>
        <mxCell id="0cCKj04-58CsqOeZP6ju-387" value="" style="shape=partialRectangle;connectable=0;fillColor=none;top=0;left=0;bottom=0;right=0;editable=1;overflow=hidden;" vertex="1" parent="0cCKj04-58CsqOeZP6ju-386">
          <mxGeometry width="30" height="30" as="geometry" />
        </mxCell>
        <mxCell id="0cCKj04-58CsqOeZP6ju-388" value="song_name" style="shape=partialRectangle;connectable=0;fillColor=none;top=0;left=0;bottom=0;right=0;align=left;spacingLeft=6;overflow=hidden;" vertex="1" parent="0cCKj04-58CsqOeZP6ju-386">
          <mxGeometry x="30" width="150" height="30" as="geometry" />
        </mxCell>
        <mxCell id="0cCKj04-58CsqOeZP6ju-389" value="" style="shape=partialRectangle;collapsible=0;dropTarget=0;pointerEvents=0;fillColor=none;top=0;left=0;bottom=0;right=0;points=[[0,0.5],[1,0.5]];portConstraint=eastwest;" vertex="1" parent="0cCKj04-58CsqOeZP6ju-382">
          <mxGeometry y="80" width="180" height="30" as="geometry" />
        </mxCell>
        <mxCell id="0cCKj04-58CsqOeZP6ju-390" value="FK" style="shape=partialRectangle;connectable=0;fillColor=none;top=0;left=0;bottom=0;right=0;editable=1;overflow=hidden;" vertex="1" parent="0cCKj04-58CsqOeZP6ju-389">
          <mxGeometry width="30" height="30" as="geometry" />
        </mxCell>
        <mxCell id="0cCKj04-58CsqOeZP6ju-391" value="singerID" style="shape=partialRectangle;connectable=0;fillColor=none;top=0;left=0;bottom=0;right=0;align=left;spacingLeft=6;overflow=hidden;fontStyle=2" vertex="1" parent="0cCKj04-58CsqOeZP6ju-389">
          <mxGeometry x="30" width="150" height="30" as="geometry" />
        </mxCell>
        <mxCell id="0cCKj04-58CsqOeZP6ju-392" value="" style="shape=partialRectangle;collapsible=0;dropTarget=0;pointerEvents=0;fillColor=none;top=0;left=0;bottom=0;right=0;points=[[0,0.5],[1,0.5]];portConstraint=eastwest;" vertex="1" parent="0cCKj04-58CsqOeZP6ju-382">
          <mxGeometry y="110" width="180" height="30" as="geometry" />
        </mxCell>
        <mxCell id="0cCKj04-58CsqOeZP6ju-393" value="" style="shape=partialRectangle;connectable=0;fillColor=none;top=0;left=0;bottom=0;right=0;editable=1;overflow=hidden;" vertex="1" parent="0cCKj04-58CsqOeZP6ju-392">
          <mxGeometry width="30" height="30" as="geometry" />
        </mxCell>
        <mxCell id="0cCKj04-58CsqOeZP6ju-394" value="lyrics" style="shape=partialRectangle;connectable=0;fillColor=none;top=0;left=0;bottom=0;right=0;align=left;spacingLeft=6;overflow=hidden;" vertex="1" parent="0cCKj04-58CsqOeZP6ju-392">
          <mxGeometry x="30" width="150" height="30" as="geometry" />
        </mxCell>
        <mxCell id="0cCKj04-58CsqOeZP6ju-395" value="" style="shape=table;startSize=30;container=1;collapsible=1;childLayout=tableLayout;fixedRows=1;rowLines=0;fontStyle=1;align=center;resizeLast=1;" vertex="1" parent="1">
          <mxGeometry x="113" y="681" width="180" height="135" as="geometry" />
        </mxCell>
        <mxCell id="0cCKj04-58CsqOeZP6ju-396" value="" style="shape=partialRectangle;collapsible=0;dropTarget=0;pointerEvents=0;fillColor=none;top=0;left=0;bottom=1;right=0;points=[[0,0.5],[1,0.5]];portConstraint=eastwest;" vertex="1" parent="0cCKj04-58CsqOeZP6ju-395">
          <mxGeometry y="30" width="180" height="30" as="geometry" />
        </mxCell>
        <mxCell id="0cCKj04-58CsqOeZP6ju-397" value="PK" style="shape=partialRectangle;connectable=0;fillColor=none;top=0;left=0;bottom=0;right=0;fontStyle=1;overflow=hidden;" vertex="1" parent="0cCKj04-58CsqOeZP6ju-396">
          <mxGeometry width="30" height="30" as="geometry" />
        </mxCell>
        <mxCell id="0cCKj04-58CsqOeZP6ju-398" value="keywordID" style="shape=partialRectangle;connectable=0;fillColor=none;top=0;left=0;bottom=0;right=0;align=left;spacingLeft=6;fontStyle=5;overflow=hidden;" vertex="1" parent="0cCKj04-58CsqOeZP6ju-396">
          <mxGeometry x="30" width="150" height="30" as="geometry" />
        </mxCell>
        <mxCell id="0cCKj04-58CsqOeZP6ju-399" value="" style="shape=partialRectangle;collapsible=0;dropTarget=0;pointerEvents=0;fillColor=none;top=0;left=0;bottom=0;right=0;points=[[0,0.5],[1,0.5]];portConstraint=eastwest;" vertex="1" parent="0cCKj04-58CsqOeZP6ju-395">
          <mxGeometry y="60" width="180" height="30" as="geometry" />
        </mxCell>
        <mxCell id="0cCKj04-58CsqOeZP6ju-400" value="" style="shape=partialRectangle;connectable=0;fillColor=none;top=0;left=0;bottom=0;right=0;editable=1;overflow=hidden;" vertex="1" parent="0cCKj04-58CsqOeZP6ju-399">
          <mxGeometry width="30" height="30" as="geometry" />
        </mxCell>
        <mxCell id="0cCKj04-58CsqOeZP6ju-401" value="keyword" style="shape=partialRectangle;connectable=0;fillColor=none;top=0;left=0;bottom=0;right=0;align=left;spacingLeft=6;overflow=hidden;" vertex="1" parent="0cCKj04-58CsqOeZP6ju-399">
          <mxGeometry x="30" width="150" height="30" as="geometry" />
        </mxCell>
        <mxCell id="0cCKj04-58CsqOeZP6ju-402" value="" style="shape=partialRectangle;collapsible=0;dropTarget=0;pointerEvents=0;fillColor=none;top=0;left=0;bottom=0;right=0;points=[[0,0.5],[1,0.5]];portConstraint=eastwest;" vertex="1" parent="0cCKj04-58CsqOeZP6ju-395">
          <mxGeometry y="90" width="180" height="30" as="geometry" />
        </mxCell>
        <mxCell id="0cCKj04-58CsqOeZP6ju-403" value="FK" style="shape=partialRectangle;connectable=0;fillColor=none;top=0;left=0;bottom=0;right=0;editable=1;overflow=hidden;" vertex="1" parent="0cCKj04-58CsqOeZP6ju-402">
          <mxGeometry width="30" height="30" as="geometry" />
        </mxCell>
        <mxCell id="0cCKj04-58CsqOeZP6ju-404" value="native_name" style="shape=partialRectangle;connectable=0;fillColor=none;top=0;left=0;bottom=0;right=0;align=left;spacingLeft=6;overflow=hidden;fontStyle=2" vertex="1" parent="0cCKj04-58CsqOeZP6ju-402">
          <mxGeometry x="30" width="150" height="30" as="geometry" />
        </mxCell>
        <mxCell id="0cCKj04-58CsqOeZP6ju-446" value="" style="shape=table;startSize=30;container=1;collapsible=1;childLayout=tableLayout;fixedRows=1;rowLines=0;fontStyle=1;align=center;resizeLast=1;" vertex="1" parent="1">
          <mxGeometry x="41.5" y="1312" width="180" height="135" as="geometry" />
        </mxCell>
        <mxCell id="0cCKj04-58CsqOeZP6ju-447" value="" style="shape=partialRectangle;collapsible=0;dropTarget=0;pointerEvents=0;fillColor=none;top=0;left=0;bottom=1;right=0;points=[[0,0.5],[1,0.5]];portConstraint=eastwest;" vertex="1" parent="0cCKj04-58CsqOeZP6ju-446">
          <mxGeometry y="30" width="180" height="30" as="geometry" />
        </mxCell>
        <mxCell id="0cCKj04-58CsqOeZP6ju-448" value="PK" style="shape=partialRectangle;connectable=0;fillColor=none;top=0;left=0;bottom=0;right=0;fontStyle=1;overflow=hidden;" vertex="1" parent="0cCKj04-58CsqOeZP6ju-447">
          <mxGeometry width="30" height="30" as="geometry" />
        </mxCell>
        <mxCell id="0cCKj04-58CsqOeZP6ju-449" value="languageID" style="shape=partialRectangle;connectable=0;fillColor=none;top=0;left=0;bottom=0;right=0;align=left;spacingLeft=6;fontStyle=5;overflow=hidden;" vertex="1" parent="0cCKj04-58CsqOeZP6ju-447">
          <mxGeometry x="30" width="150" height="30" as="geometry" />
        </mxCell>
        <mxCell id="0cCKj04-58CsqOeZP6ju-450" value="" style="shape=partialRectangle;collapsible=0;dropTarget=0;pointerEvents=0;fillColor=none;top=0;left=0;bottom=0;right=0;points=[[0,0.5],[1,0.5]];portConstraint=eastwest;" vertex="1" parent="0cCKj04-58CsqOeZP6ju-446">
          <mxGeometry y="60" width="180" height="30" as="geometry" />
        </mxCell>
        <mxCell id="0cCKj04-58CsqOeZP6ju-451" value="" style="shape=partialRectangle;connectable=0;fillColor=none;top=0;left=0;bottom=0;right=0;editable=1;overflow=hidden;" vertex="1" parent="0cCKj04-58CsqOeZP6ju-450">
          <mxGeometry width="30" height="30" as="geometry" />
        </mxCell>
        <mxCell id="0cCKj04-58CsqOeZP6ju-452" value="language" style="shape=partialRectangle;connectable=0;fillColor=none;top=0;left=0;bottom=0;right=0;align=left;spacingLeft=6;overflow=hidden;" vertex="1" parent="0cCKj04-58CsqOeZP6ju-450">
          <mxGeometry x="30" width="150" height="30" as="geometry" />
        </mxCell>
        <mxCell id="0cCKj04-58CsqOeZP6ju-453" value="" style="shape=partialRectangle;collapsible=0;dropTarget=0;pointerEvents=0;fillColor=none;top=0;left=0;bottom=0;right=0;points=[[0,0.5],[1,0.5]];portConstraint=eastwest;" vertex="1" parent="0cCKj04-58CsqOeZP6ju-446">
          <mxGeometry y="90" width="180" height="30" as="geometry" />
        </mxCell>
        <mxCell id="0cCKj04-58CsqOeZP6ju-454" value="FK" style="shape=partialRectangle;connectable=0;fillColor=none;top=0;left=0;bottom=0;right=0;editable=1;overflow=hidden;" vertex="1" parent="0cCKj04-58CsqOeZP6ju-453">
          <mxGeometry width="30" height="30" as="geometry" />
        </mxCell>
        <mxCell id="0cCKj04-58CsqOeZP6ju-455" value="native_name" style="shape=partialRectangle;connectable=0;fillColor=none;top=0;left=0;bottom=0;right=0;align=left;spacingLeft=6;overflow=hidden;fontStyle=2" vertex="1" parent="0cCKj04-58CsqOeZP6ju-453">
          <mxGeometry x="30" width="150" height="30" as="geometry" />
        </mxCell>
        <mxCell id="0cCKj04-58CsqOeZP6ju-406" value="" style="shape=table;startSize=30;container=1;collapsible=1;childLayout=tableLayout;fixedRows=1;rowLines=0;fontStyle=1;align=center;resizeLast=1;" vertex="1" parent="1">
          <mxGeometry x="680.5" y="1181.5" width="180" height="137" as="geometry" />
        </mxCell>
        <mxCell id="0cCKj04-58CsqOeZP6ju-407" value="" style="shape=partialRectangle;collapsible=0;dropTarget=0;pointerEvents=0;fillColor=none;top=0;left=0;bottom=1;right=0;points=[[0,0.5],[1,0.5]];portConstraint=eastwest;" vertex="1" parent="0cCKj04-58CsqOeZP6ju-406">
          <mxGeometry y="30" width="180" height="30" as="geometry" />
        </mxCell>
        <mxCell id="0cCKj04-58CsqOeZP6ju-408" value="PK" style="shape=partialRectangle;connectable=0;fillColor=none;top=0;left=0;bottom=0;right=0;fontStyle=1;overflow=hidden;" vertex="1" parent="0cCKj04-58CsqOeZP6ju-407">
          <mxGeometry width="30" height="30" as="geometry" />
        </mxCell>
        <mxCell id="0cCKj04-58CsqOeZP6ju-409" value="genreID" style="shape=partialRectangle;connectable=0;fillColor=none;top=0;left=0;bottom=0;right=0;align=left;spacingLeft=6;fontStyle=5;overflow=hidden;" vertex="1" parent="0cCKj04-58CsqOeZP6ju-407">
          <mxGeometry x="30" width="150" height="30" as="geometry" />
        </mxCell>
        <mxCell id="0cCKj04-58CsqOeZP6ju-410" value="" style="shape=partialRectangle;collapsible=0;dropTarget=0;pointerEvents=0;fillColor=none;top=0;left=0;bottom=0;right=0;points=[[0,0.5],[1,0.5]];portConstraint=eastwest;" vertex="1" parent="0cCKj04-58CsqOeZP6ju-406">
          <mxGeometry y="60" width="180" height="30" as="geometry" />
        </mxCell>
        <mxCell id="0cCKj04-58CsqOeZP6ju-411" value="" style="shape=partialRectangle;connectable=0;fillColor=none;top=0;left=0;bottom=0;right=0;editable=1;overflow=hidden;" vertex="1" parent="0cCKj04-58CsqOeZP6ju-410">
          <mxGeometry width="30" height="30" as="geometry" />
        </mxCell>
        <mxCell id="0cCKj04-58CsqOeZP6ju-412" value="genere" style="shape=partialRectangle;connectable=0;fillColor=none;top=0;left=0;bottom=0;right=0;align=left;spacingLeft=6;overflow=hidden;" vertex="1" parent="0cCKj04-58CsqOeZP6ju-410">
          <mxGeometry x="30" width="150" height="30" as="geometry" />
        </mxCell>
        <mxCell id="0cCKj04-58CsqOeZP6ju-413" value="" style="shape=partialRectangle;collapsible=0;dropTarget=0;pointerEvents=0;fillColor=none;top=0;left=0;bottom=0;right=0;points=[[0,0.5],[1,0.5]];portConstraint=eastwest;" vertex="1" parent="0cCKj04-58CsqOeZP6ju-406">
          <mxGeometry y="90" width="180" height="30" as="geometry" />
        </mxCell>
        <mxCell id="0cCKj04-58CsqOeZP6ju-414" value="FK" style="shape=partialRectangle;connectable=0;fillColor=none;top=0;left=0;bottom=0;right=0;editable=1;overflow=hidden;" vertex="1" parent="0cCKj04-58CsqOeZP6ju-413">
          <mxGeometry width="30" height="30" as="geometry" />
        </mxCell>
        <mxCell id="0cCKj04-58CsqOeZP6ju-415" value="native_name" style="shape=partialRectangle;connectable=0;fillColor=none;top=0;left=0;bottom=0;right=0;align=left;spacingLeft=6;overflow=hidden;fontStyle=2" vertex="1" parent="0cCKj04-58CsqOeZP6ju-413">
          <mxGeometry x="30" width="150" height="30" as="geometry" />
        </mxCell>
      </root>
    </mxGraphModel>
  </diagram>
</mxfile>
